<svg width="343" height="269" viewBox="0 0 343 269" fill="none" xmlns="http://www.w3.org/2000/svg">
<path opacity="0.1" fill-rule="evenodd" clip-rule="evenodd" d="M323.32 136.031C323.32 136.031 322.231 136.691 322.231 138.891C322.231 138.891 325.499 151.654 315.258 155.614C305.017 159.355 298.263 152.314 298.263 152.314C298.263 152.314 289.983 142.192 277.999 140.872C277.999 140.872 271.898 140.652 273.859 146.593C273.859 146.593 274.294 150.993 278.87 149.233C278.87 149.233 286.279 145.052 291.726 152.974C291.726 152.974 295.212 162.435 307.414 162.656C307.414 162.656 299.134 172.337 274.077 158.255C274.077 158.255 250.326 142.632 238.778 147.033C238.778 147.033 220.257 154.074 225.704 173.437L232.677 201.602C232.677 201.602 238.778 215.465 221.347 221.406C221.347 221.406 184.305 230.428 171.667 248.251C171.667 248.251 160.119 267.174 150.313 274.655C150.313 274.655 135.279 293.359 106.517 295.339C106.517 295.339 141.38 282.357 152.274 235.048C152.274 235.048 156.414 191.261 189.97 180.039C189.97 180.039 208.709 175.638 213.72 154.954C213.72 154.954 219.168 135.591 245.751 125.029C245.751 125.029 240.085 120.848 231.587 127.449L219.603 136.471C219.603 136.471 216.117 140.872 206.312 138.891C206.312 138.891 191.931 137.791 182.126 137.791C182.126 137.791 173.628 137.791 174.717 127.449C174.717 127.449 175.371 115.787 173.41 110.286C173.41 110.286 171.667 100.384 177.55 94.8834C177.55 94.8834 171.231 92.683 169.488 105.445C169.488 105.445 169.052 124.589 167.745 129.43C167.745 129.43 163.823 142.412 176.678 143.072L200.865 142.632C200.865 142.632 213.72 141.972 211.977 152.314C211.977 152.314 209.145 166.616 186.048 175.638C186.048 175.638 153.364 183.119 144.212 210.184C144.212 210.184 136.368 226.027 131.575 253.752C131.575 253.752 133.318 278.616 101.07 289.838C54.2227 306.781 43.9817 331.426 43.9817 331.426C38.7523 338.027 39.8418 342.427 39.8418 342.427C39.8418 347.268 35.7018 360.691 35.7018 360.691C27.204 384.675 12.1694 376.754 12.1694 376.754C7.37571 375.653 0.621026 367.072 0.621026 367.072C-1.5579 362.671 9.55464 353.429 9.55464 353.429C16.0914 347.928 27.6397 329.665 27.6397 329.665C32.8692 323.724 30.2545 313.822 30.2545 313.822C29.8187 307.221 33.305 305.241 33.305 305.241C35.9197 302.6 36.3555 302.6 36.3555 302.6C48.3396 282.357 48.3396 257.712 48.3396 257.712C47.2501 245.17 42.8923 255.072 42.8923 255.072C36.1376 269.154 32.4334 288.078 32.4334 288.078C29.3829 270.915 40.9312 240.989 40.9312 240.989C45.507 231.308 49.8648 217.225 49.8648 217.225C52.2616 208.204 48.7754 209.964 48.7754 209.964C43.328 210.624 42.2386 213.705 42.2386 213.705C29.8187 235.488 25.6787 295.779 25.6787 295.779C22.1924 239.889 37.8807 209.084 37.8807 209.084C40.0596 204.903 39.6239 202.483 39.6239 202.483C38.9702 196.982 36.5734 202.483 36.5734 202.483C30.4724 213.485 21.3209 253.312 21.3209 253.312C27.8576 203.363 44.8533 176.518 44.8533 176.518C44.8533 176.518 56.1837 152.754 56.8374 182.019C58.3626 200.502 65.5531 198.742 65.5531 198.742C57.2732 159.135 76.6656 139.331 76.6656 139.331C80.5877 135.151 71.6541 138.671 71.6541 138.671C61.8489 144.832 54.6585 155.834 54.6585 155.834C85.1635 94.6634 125.692 116.667 125.692 116.667C97.8013 128.109 90.6108 155.834 90.6108 155.834C104.774 133.83 154.453 103.685 154.453 103.685C134.843 110.506 114.797 106.325 114.797 106.325C138.329 100.824 154.236 82.5612 154.236 82.5612C172.103 91.5829 180.165 84.3216 180.165 84.3216C167.963 86.3019 159.029 77.5004 159.029 77.5004C158.375 67.5986 154.236 61.4375 154.236 61.4375C147.699 52.856 145.302 44.2744 145.302 44.2744C156.632 32.3923 190.842 62.5377 190.842 62.5377C157.94 30.8521 181.69 10.8285 181.69 10.8285C195.417 -3.91413 225.269 1.14677 225.269 1.14677C249.673 4.66739 273.205 5.98763 273.205 5.98763C273.205 5.98763 248.801 20.7303 215.463 21.1703C215.463 21.1703 199.775 19.6301 197.814 23.8108C197.814 23.8108 190.188 36.353 208.273 45.3746C208.273 45.3746 213.067 52.6359 197.814 59.4571C197.814 59.4571 208.927 62.9778 212.413 50.2155C215.899 37.4532 234.202 43.6143 234.202 43.6143C234.202 43.6143 249.455 46.6949 275.166 69.799C275.166 69.799 282.792 75.9601 282.357 88.2823C282.357 88.2823 280.613 92.463 286.714 97.5239C286.714 97.5239 295.212 108.746 308.068 111.166C308.068 111.166 317.002 110.946 317.655 116.667C317.873 119.748 322.449 120.408 322.449 120.408C322.449 120.408 334.215 124.589 323.32 136.031ZM233.984 248.691C227.23 260.573 241.175 270.255 241.175 270.255C247.494 275.536 249.237 277.516 249.237 277.516C265.143 300.84 237.035 318.663 237.035 318.663C222.872 329.445 224.179 339.347 224.179 339.347C224.833 348.589 223.09 357.83 223.09 357.83C220.039 369.272 210.452 361.351 210.452 361.351C198.468 351.889 196.507 340.667 196.507 340.667C194.11 334.286 200.865 332.526 200.865 332.526C205.005 328.785 205.005 318.223 205.005 318.223C205.44 310.522 210.888 310.082 210.888 310.082C216.989 308.321 218.732 302.82 218.732 302.82C223.743 293.579 208.491 284.997 208.491 284.997C187.355 273.335 153.364 286.978 153.364 286.978C202.608 202.263 273.205 244.73 273.205 244.73C237.471 236.149 233.766 248.911 233.984 248.691ZM254.902 74.1998C254.902 74.1998 247.276 65.6182 240.957 66.9385C240.957 66.9385 235.074 66.4984 234.42 73.7597C234.42 73.7597 232.459 77.9404 238.778 78.8206L250.98 79.0406C250.98 79.0406 260.131 78.6005 254.902 74.1998ZM314.605 119.968C312.208 115.567 306.107 117.988 306.107 117.988C306.107 117.988 303.71 118.868 305.671 121.068C307.632 123.268 305.453 125.249 305.453 125.249C305.453 125.249 304.364 130.75 309.811 129.65C318.309 128.109 314.823 119.968 314.605 119.968ZM265.361 57.0367C273.859 49.9955 301.531 42.9542 312.644 49.5554C323.974 56.1566 342.931 53.296 342.931 53.296C322.885 68.6988 295.648 63.1978 295.648 63.1978C288.675 66.9385 278.217 66.9385 278.217 66.9385C274.948 62.0976 265.361 57.0367 265.361 57.0367Z" fill="white"/>
</svg>
