<svg width="343" height="288" viewBox="0 0 343 288" fill="none" xmlns="http://www.w3.org/2000/svg">
<path opacity="0.3" fill-rule="evenodd" clip-rule="evenodd" d="M323.322 135.723C323.322 135.723 322.233 136.383 322.233 138.583C322.233 138.583 325.501 151.345 315.26 155.306C305.019 159.047 298.265 152.006 298.265 152.006C298.265 152.006 289.985 141.884 278.001 140.564C278.001 140.564 271.9 140.343 273.861 146.285C273.861 146.285 274.296 150.685 278.872 148.925C278.872 148.925 286.281 144.744 291.728 152.666C291.728 152.666 295.214 162.127 307.416 162.347C307.416 162.347 299.136 172.029 274.079 157.947C274.079 157.947 250.328 142.324 238.78 146.725C238.78 146.725 220.259 153.766 225.706 173.129L232.679 201.294C232.679 201.294 238.78 215.157 221.348 221.098C221.348 221.098 184.307 230.119 171.669 247.943C171.669 247.943 160.121 266.866 150.315 274.347C150.315 274.347 135.281 293.051 106.519 295.031C106.519 295.031 141.382 282.049 152.276 234.74C152.276 234.74 156.416 190.952 189.972 179.73C189.972 179.73 208.711 175.33 213.722 154.646C213.722 154.646 219.17 135.283 245.752 124.721C245.752 124.721 240.087 120.54 231.589 127.141L219.605 136.163C219.605 136.163 216.119 140.564 206.314 138.583C206.314 138.583 191.933 137.483 182.128 137.483C182.128 137.483 173.63 137.483 174.719 127.141C174.719 127.141 175.373 115.479 173.412 109.978C173.412 109.978 171.669 100.076 177.552 94.5753C177.552 94.5753 171.233 92.3749 169.49 105.137C169.49 105.137 169.054 124.281 167.747 129.121C167.747 129.121 163.825 142.104 176.68 142.764L200.867 142.324C200.867 142.324 213.722 141.664 211.979 152.006C211.979 152.006 209.146 166.308 186.05 175.33C186.05 175.33 153.366 182.811 144.214 209.876C144.214 209.876 136.37 225.719 131.577 253.444C131.577 253.444 133.32 278.308 101.072 289.53C54.2246 306.473 43.9837 331.117 43.9837 331.117C38.7542 337.719 39.8437 342.119 39.8437 342.119C39.8437 346.96 35.7037 360.383 35.7037 360.383C27.2059 384.367 12.1713 376.445 12.1713 376.445C7.37766 375.345 0.622979 366.764 0.622979 366.764C-1.55595 362.363 9.55659 353.121 9.55659 353.121C16.0934 347.62 27.6417 329.357 27.6417 329.357C32.8711 323.416 30.2564 313.514 30.2564 313.514C29.8206 306.913 33.3069 304.933 33.3069 304.933C35.9216 302.292 36.3574 302.292 36.3574 302.292C48.3415 282.049 48.3415 257.404 48.3415 257.404C47.2521 244.862 42.8942 254.764 42.8942 254.764C36.1395 268.846 32.4353 287.77 32.4353 287.77C29.3848 270.607 40.9332 240.681 40.9332 240.681C45.5089 231 49.8668 216.917 49.8668 216.917C52.2636 207.896 48.7773 209.656 48.7773 209.656C43.33 210.316 42.2405 213.396 42.2405 213.396C29.8206 235.18 25.6807 295.471 25.6807 295.471C22.1944 239.581 37.8827 208.776 37.8827 208.776C40.0616 204.595 39.6258 202.174 39.6258 202.174C38.9721 196.674 36.5753 202.174 36.5753 202.174C30.4743 213.176 21.3228 253.004 21.3228 253.004C27.8596 203.055 44.8552 176.21 44.8552 176.21C44.8552 176.21 56.1857 152.446 56.8393 181.711C58.3646 200.194 65.5551 198.434 65.5551 198.434C57.2751 158.827 76.6676 139.023 76.6676 139.023C80.5897 134.842 71.6561 138.363 71.6561 138.363C61.8509 144.524 54.6604 155.526 54.6604 155.526C85.1654 94.3553 125.694 116.359 125.694 116.359C97.8032 127.801 90.6127 155.526 90.6127 155.526C104.776 133.522 154.455 103.377 154.455 103.377C134.845 110.198 114.799 106.017 114.799 106.017C138.331 100.516 154.237 82.2531 154.237 82.2531C172.105 91.2747 180.167 84.0135 180.167 84.0135C167.965 85.9938 159.031 77.1923 159.031 77.1923C158.377 67.2905 154.237 61.1294 154.237 61.1294C147.701 52.5479 145.304 43.9663 145.304 43.9663C156.634 32.0842 190.843 62.2296 190.843 62.2296C157.942 30.5439 181.692 10.5204 181.692 10.5204C195.419 -4.22224 225.271 0.838661 225.271 0.838661C249.675 4.35929 273.207 5.67952 273.207 5.67952C273.207 5.67952 248.803 20.4221 215.465 20.8622C215.465 20.8622 199.777 19.322 197.816 23.5027C197.816 23.5027 190.19 36.0449 208.275 45.0665C208.275 45.0665 213.069 52.3278 197.816 59.149C197.816 59.149 208.929 62.6697 212.415 49.9074C215.901 37.1451 234.204 43.3062 234.204 43.3062C234.204 43.3062 249.457 46.3868 275.168 69.4909C275.168 69.4909 282.794 75.652 282.358 87.9742C282.358 87.9742 280.615 92.1549 286.716 97.2158C286.716 97.2158 295.214 108.438 308.07 110.858C308.07 110.858 317.003 110.638 317.657 116.359C317.875 119.44 322.451 120.1 322.451 120.1C322.451 120.1 334.217 124.281 323.322 135.723ZM233.986 248.383C227.232 260.265 241.177 269.947 241.177 269.947C247.496 275.228 249.239 277.208 249.239 277.208C265.145 300.532 237.037 318.355 237.037 318.355C222.874 329.137 224.181 339.039 224.181 339.039C224.835 348.28 223.092 357.522 223.092 357.522C220.041 368.964 210.454 361.043 210.454 361.043C198.47 351.581 196.509 340.359 196.509 340.359C194.112 333.978 200.867 332.218 200.867 332.218C205.007 328.477 205.007 317.915 205.007 317.915C205.442 310.214 210.89 309.774 210.89 309.774C216.991 308.013 218.734 302.512 218.734 302.512C223.745 293.271 208.493 284.689 208.493 284.689C187.357 273.027 153.366 286.67 153.366 286.67C202.61 201.954 273.207 244.422 273.207 244.422C237.473 235.84 233.768 248.603 233.986 248.383ZM254.904 73.8917C254.904 73.8917 247.278 65.3101 240.959 66.6304C240.959 66.6304 235.076 66.1903 234.422 73.4516C234.422 73.4516 232.461 77.6323 238.78 78.5125L250.982 78.7325C250.982 78.7325 260.133 78.2924 254.904 73.8917ZM314.607 119.66C312.21 115.259 306.109 117.679 306.109 117.679C306.109 117.679 303.712 118.56 305.673 120.76C307.634 122.96 305.455 124.941 305.455 124.941C305.455 124.941 304.366 130.442 309.813 129.342C318.311 127.801 314.825 119.66 314.607 119.66ZM265.363 56.7286C273.861 49.6874 301.533 42.6461 312.646 49.2473C323.976 55.8484 342.933 52.9879 342.933 52.9879C322.887 68.3907 295.65 62.8897 295.65 62.8897C288.677 66.6304 278.219 66.6304 278.219 66.6304C274.95 61.7895 265.363 56.7286 265.363 56.7286Z" fill="white"/>
</svg>
