<svg width="341" height="341" viewBox="0 0 341 341" fill="none" xmlns="http://www.w3.org/2000/svg">
<path opacity="0.1" fill-rule="evenodd" clip-rule="evenodd" d="M320.735 134.104C320.735 134.104 319.654 134.754 319.654 136.921C319.654 136.921 322.897 149.49 312.734 153.391C302.571 157.075 295.867 150.14 295.867 150.14C295.867 150.14 287.65 140.172 275.757 138.871C275.757 138.871 269.702 138.655 271.648 144.506C271.648 144.506 272.08 148.84 276.622 147.106C276.622 147.106 283.974 142.989 289.38 150.79C289.38 150.79 292.84 160.109 304.949 160.325C304.949 160.325 296.732 169.86 271.864 155.991C271.864 155.991 248.294 140.605 236.833 144.939C236.833 144.939 218.452 151.874 223.858 170.944L230.778 198.682C230.778 198.682 236.833 212.335 219.534 218.186C219.534 218.186 182.772 227.071 170.23 244.624C170.23 244.624 158.77 263.26 149.039 270.628C149.039 270.628 134.118 289.048 105.574 290.999C105.574 290.999 140.173 278.213 150.985 231.621C150.985 231.621 155.093 188.497 188.395 177.445C188.395 177.445 206.992 173.111 211.965 152.741C211.965 152.741 217.371 133.671 243.753 123.269C243.753 123.269 238.13 119.151 229.697 125.652L217.804 134.537C217.804 134.537 214.344 138.871 204.613 136.921C204.613 136.921 190.341 135.838 180.61 135.838C180.61 135.838 172.177 135.838 173.258 125.652C173.258 125.652 173.906 114.167 171.96 108.749C171.96 108.749 170.23 98.9976 176.069 93.58C176.069 93.58 169.798 91.4129 168.068 103.982C168.068 103.982 167.635 122.835 166.338 127.603C166.338 127.603 162.446 140.388 175.204 141.039L199.207 140.605C199.207 140.605 211.965 139.955 210.235 150.14C210.235 150.14 207.424 164.226 184.502 173.111C184.502 173.111 152.066 180.479 142.984 207.134C142.984 207.134 135.199 222.736 130.442 250.041C130.442 250.041 132.172 274.529 100.168 285.581C53.6758 302.267 43.5124 326.538 43.5124 326.538C38.3226 333.04 39.4038 337.374 39.4038 337.374C39.4038 342.141 35.2952 355.36 35.2952 355.36C26.8618 378.981 11.941 371.18 11.941 371.18C7.18372 370.096 0.480209 361.645 0.480209 361.645C-1.68221 357.311 9.34614 348.209 9.34614 348.209C15.8334 342.791 27.2942 324.805 27.2942 324.805C32.4841 318.954 29.8891 309.202 29.8891 309.202C29.4567 302.701 32.9165 300.75 32.9165 300.75C35.5114 298.15 35.9439 298.15 35.9439 298.15C47.8373 278.213 47.8373 253.942 47.8373 253.942C46.756 241.59 42.4312 251.342 42.4312 251.342C35.7277 265.211 32.0516 283.847 32.0516 283.847C29.0242 266.944 40.485 237.472 40.485 237.472C45.0261 227.937 49.3509 214.068 49.3509 214.068C51.7296 205.183 48.2697 206.917 48.2697 206.917C42.8637 207.567 41.7825 210.601 41.7825 210.601C29.4567 232.055 25.3481 291.432 25.3481 291.432C21.8882 236.389 37.4576 206.05 37.4576 206.05C39.62 201.933 39.1876 199.549 39.1876 199.549C38.5388 194.131 36.1602 199.549 36.1602 199.549C30.1054 210.384 21.0232 249.608 21.0232 249.608C27.5105 200.416 44.3774 173.978 44.3774 173.978C44.3774 173.978 55.622 150.574 56.2707 179.395C57.7844 197.599 64.9204 195.865 64.9204 195.865C56.7032 156.858 75.9487 137.355 75.9487 137.355C79.8411 133.237 70.9752 136.704 70.9752 136.704C61.2443 142.772 54.1083 153.607 54.1083 153.607C84.3822 93.3633 124.603 115.034 124.603 115.034C96.9242 126.303 89.7882 153.607 89.7882 153.607C103.844 131.937 153.147 102.248 153.147 102.248C133.685 108.966 113.791 104.849 113.791 104.849C137.145 99.431 152.931 81.4445 152.931 81.4445C170.663 90.3294 178.664 83.1781 178.664 83.1781C166.554 85.1285 157.688 76.4603 157.688 76.4603C157.04 66.7085 152.931 60.6408 152.931 60.6408C146.444 52.1893 144.065 43.7377 144.065 43.7377C155.31 32.0356 189.26 61.7243 189.26 61.7243C156.607 30.5187 180.177 10.7985 180.177 10.7985C193.801 -3.72077 223.426 1.26345 223.426 1.26345C247.645 4.73074 270.999 6.03098 270.999 6.03098C270.999 6.03098 246.78 20.5502 213.695 20.9837C213.695 20.9837 198.126 19.4667 196.179 23.5841C196.179 23.5841 188.611 35.9363 206.559 44.8213C206.559 44.8213 211.316 51.9725 196.179 58.6904C196.179 58.6904 207.208 62.1577 210.668 49.5888C214.128 37.0199 232.292 43.0876 232.292 43.0876C232.292 43.0876 247.429 46.1215 272.945 68.8756C272.945 68.8756 280.514 74.9433 280.081 87.0788C280.081 87.0788 278.351 91.1962 284.406 96.1805C284.406 96.1805 292.84 107.232 305.598 109.616C305.598 109.616 314.464 109.4 315.113 115.034C315.329 118.068 319.87 118.718 319.87 118.718C319.87 118.718 331.547 122.835 320.735 134.104ZM232.076 245.057C225.372 256.759 239.212 266.294 239.212 266.294C245.483 271.495 247.213 273.446 247.213 273.446C262.998 296.416 235.103 313.969 235.103 313.969C221.047 324.588 222.345 334.34 222.345 334.34C222.993 343.441 221.264 352.543 221.264 352.543C218.236 363.812 208.721 356.01 208.721 356.01C196.828 346.692 194.882 335.64 194.882 335.64C192.503 329.356 199.207 327.622 199.207 327.622C203.315 323.938 203.315 313.536 203.315 313.536C203.748 305.951 209.154 305.518 209.154 305.518C215.209 303.784 216.939 298.367 216.939 298.367C221.912 289.265 206.775 280.814 206.775 280.814C185.8 269.328 152.066 282.764 152.066 282.764C200.937 199.332 270.999 241.156 270.999 241.156C235.536 232.705 231.859 245.274 232.076 245.057ZM252.835 73.2097C252.835 73.2097 245.266 64.7582 238.995 66.0584C238.995 66.0584 233.157 65.625 232.508 72.7763C232.508 72.7763 230.562 76.8937 236.833 77.7605L248.942 77.9772C248.942 77.9772 258.025 77.5438 252.835 73.2097ZM312.085 118.284C309.707 113.95 303.652 116.334 303.652 116.334C303.652 116.334 301.273 117.201 303.219 119.368C305.165 121.535 303.003 123.485 303.003 123.485C303.003 123.485 301.922 128.903 307.328 127.819C315.761 126.303 312.301 118.284 312.085 118.284ZM263.214 56.3067C271.648 49.3721 299.111 42.4375 310.139 48.9387C321.384 55.4398 340.197 52.6227 340.197 52.6227C320.302 67.792 293.272 62.3744 293.272 62.3744C286.352 66.0584 275.973 66.0584 275.973 66.0584C272.729 61.2909 263.214 56.3067 263.214 56.3067Z" fill="white"/>
</svg>
