<svg width="26" height="25" viewBox="0 0 26 25" fill="none" xmlns="http://www.w3.org/2000/svg">
<mask id="mask0_5201_11786" style="mask-type:alpha" maskUnits="userSpaceOnUse" x="0" y="0" width="26" height="25">
<rect x="0.160156" width="25" height="25" fill="#D9D9D9"/>
</mask>
<g mask="url(#mask0_5201_11786)">
<path d="M1.20117 20.8334V17.9167C1.20117 17.3264 1.35326 16.7837 1.65742 16.2886C1.96089 15.7941 2.36437 15.4167 2.86784 15.1563C3.94423 14.6181 5.03798 14.2143 6.14909 13.9448C7.2602 13.6761 8.38867 13.5417 9.5345 13.5417C10.6803 13.5417 11.8088 13.6761 12.9199 13.9448C14.031 14.2143 15.1248 14.6181 16.2012 15.1563C16.7046 15.4167 17.1081 15.7941 17.4116 16.2886C17.7158 16.7837 17.8678 17.3264 17.8678 17.9167V20.8334H1.20117ZM19.9512 20.8334V17.7084C19.9512 16.9445 19.7387 16.2108 19.3137 15.5073C18.888 14.8045 18.2845 14.2014 17.5033 13.6979C18.3887 13.8021 19.222 13.9799 20.0033 14.2313C20.7845 14.4834 21.5137 14.7917 22.1908 15.1563C22.8158 15.5035 23.2932 15.8896 23.623 16.3146C23.9529 16.7403 24.1178 17.2049 24.1178 17.7084V20.8334H19.9512ZM9.5345 12.5C8.38867 12.5 7.40777 12.092 6.5918 11.2761C5.77582 10.4601 5.36784 9.47919 5.36784 8.33335C5.36784 7.18752 5.77582 6.20662 6.5918 5.39065C7.40777 4.57467 8.38867 4.16669 9.5345 4.16669C10.6803 4.16669 11.6612 4.57467 12.4772 5.39065C13.2932 6.20662 13.7012 7.18752 13.7012 8.33335C13.7012 9.47919 13.2932 10.4601 12.4772 11.2761C11.6612 12.092 10.6803 12.5 9.5345 12.5ZM19.9512 8.33335C19.9512 9.47919 19.5432 10.4601 18.7272 11.2761C17.9112 12.092 16.9303 12.5 15.7845 12.5C15.5935 12.5 15.3505 12.4785 15.0553 12.4354C14.7602 12.3917 14.5171 12.3438 14.3262 12.2917C14.7949 11.7361 15.155 11.1198 15.4064 10.4427C15.6585 9.76564 15.7845 9.06252 15.7845 8.33335C15.7845 7.60419 15.6585 6.90106 15.4064 6.22398C15.155 5.5469 14.7949 4.93058 14.3262 4.37502C14.5692 4.28821 14.8123 4.23162 15.0553 4.20523C15.2984 4.17953 15.5414 4.16669 15.7845 4.16669C16.9303 4.16669 17.9112 4.57467 18.7272 5.39065C19.5432 6.20662 19.9512 7.18752 19.9512 8.33335ZM3.28451 18.75H15.7845V17.9167C15.7845 17.7257 15.7369 17.5521 15.6418 17.3959C15.546 17.2396 15.4199 17.1181 15.2637 17.0313C14.3262 16.5625 13.38 16.2108 12.4251 15.9761C11.4703 15.742 10.5067 15.625 9.5345 15.625C8.56228 15.625 7.59874 15.742 6.64388 15.9761C5.68902 16.2108 4.74284 16.5625 3.80534 17.0313C3.64909 17.1181 3.52339 17.2396 3.42826 17.3959C3.33242 17.5521 3.28451 17.7257 3.28451 17.9167V18.75ZM9.5345 10.4167C10.1074 10.4167 10.598 10.2125 11.0064 9.80419C11.414 9.39655 11.6178 8.90627 11.6178 8.33335C11.6178 7.76044 11.414 7.27016 11.0064 6.86252C10.598 6.45419 10.1074 6.25002 9.5345 6.25002C8.96159 6.25002 8.47131 6.45419 8.06367 6.86252C7.65534 7.27016 7.45117 7.76044 7.45117 8.33335C7.45117 8.90627 7.65534 9.39655 8.06367 9.80419C8.47131 10.2125 8.96159 10.4167 9.5345 10.4167Z" fill="black"/>
</g>
</svg>
