<svg width="26" height="25" viewBox="0 0 26 25" fill="none" xmlns="http://www.w3.org/2000/svg">
<mask id="mask0_5201_11781" style="mask-type:alpha" maskUnits="userSpaceOnUse" x="0" y="0" width="26" height="25">
<rect x="0.160156" width="25" height="25" fill="#D9D9D9"/>
</mask>
<g mask="url(#mask0_5201_11781)">
<path d="M6.40951 20.8334C5.83659 20.8334 5.34631 20.6295 4.93867 20.2219C4.53034 19.8136 4.32617 19.3229 4.32617 18.75C4.32617 18.1771 4.53034 17.6865 4.93867 17.2781C5.34631 16.8705 5.83659 16.6667 6.40951 16.6667C6.98242 16.6667 7.4727 16.8705 7.88034 17.2781C8.28867 17.6865 8.49284 18.1771 8.49284 18.75C8.49284 19.3229 8.28867 19.8136 7.88034 20.2219C7.4727 20.6295 6.98242 20.8334 6.40951 20.8334ZM12.6595 20.8334C12.0866 20.8334 11.5963 20.6295 11.1887 20.2219C10.7803 19.8136 10.5762 19.3229 10.5762 18.75C10.5762 18.1771 10.7803 17.6865 11.1887 17.2781C11.5963 16.8705 12.0866 16.6667 12.6595 16.6667C13.2324 16.6667 13.723 16.8705 14.1314 17.2781C14.539 17.6865 14.7428 18.1771 14.7428 18.75C14.7428 19.3229 14.539 19.8136 14.1314 20.2219C13.723 20.6295 13.2324 20.8334 12.6595 20.8334ZM18.9095 20.8334C18.3366 20.8334 17.846 20.6295 17.4376 20.2219C17.03 19.8136 16.8262 19.3229 16.8262 18.75C16.8262 18.1771 17.03 17.6865 17.4376 17.2781C17.846 16.8705 18.3366 16.6667 18.9095 16.6667C19.4824 16.6667 19.973 16.8705 20.3814 17.2781C20.789 17.6865 20.9928 18.1771 20.9928 18.75C20.9928 19.3229 20.789 19.8136 20.3814 20.2219C19.973 20.6295 19.4824 20.8334 18.9095 20.8334ZM6.40951 14.5834C5.83659 14.5834 5.34631 14.3792 4.93867 13.9709C4.53034 13.5632 4.32617 13.0729 4.32617 12.5C4.32617 11.9271 4.53034 11.4365 4.93867 11.0281C5.34631 10.6205 5.83659 10.4167 6.40951 10.4167C6.98242 10.4167 7.4727 10.6205 7.88034 11.0281C8.28867 11.4365 8.49284 11.9271 8.49284 12.5C8.49284 13.0729 8.28867 13.5632 7.88034 13.9709C7.4727 14.3792 6.98242 14.5834 6.40951 14.5834ZM12.6595 14.5834C12.0866 14.5834 11.5963 14.3792 11.1887 13.9709C10.7803 13.5632 10.5762 13.0729 10.5762 12.5C10.5762 11.9271 10.7803 11.4365 11.1887 11.0281C11.5963 10.6205 12.0866 10.4167 12.6595 10.4167C13.2324 10.4167 13.723 10.6205 14.1314 11.0281C14.539 11.4365 14.7428 11.9271 14.7428 12.5C14.7428 13.0729 14.539 13.5632 14.1314 13.9709C13.723 14.3792 13.2324 14.5834 12.6595 14.5834ZM18.9095 14.5834C18.3366 14.5834 17.846 14.3792 17.4376 13.9709C17.03 13.5632 16.8262 13.0729 16.8262 12.5C16.8262 11.9271 17.03 11.4365 17.4376 11.0281C17.846 10.6205 18.3366 10.4167 18.9095 10.4167C19.4824 10.4167 19.973 10.6205 20.3814 11.0281C20.789 11.4365 20.9928 11.9271 20.9928 12.5C20.9928 13.0729 20.789 13.5632 20.3814 13.9709C19.973 14.3792 19.4824 14.5834 18.9095 14.5834ZM6.40951 8.33335C5.83659 8.33335 5.34631 8.12919 4.93867 7.72085C4.53034 7.31321 4.32617 6.82294 4.32617 6.25002C4.32617 5.6771 4.53034 5.18683 4.93867 4.77919C5.34631 4.37085 5.83659 4.16669 6.40951 4.16669C6.98242 4.16669 7.4727 4.37085 7.88034 4.77919C8.28867 5.18683 8.49284 5.6771 8.49284 6.25002C8.49284 6.82294 8.28867 7.31321 7.88034 7.72085C7.4727 8.12919 6.98242 8.33335 6.40951 8.33335ZM12.6595 8.33335C12.0866 8.33335 11.5963 8.12919 11.1887 7.72085C10.7803 7.31321 10.5762 6.82294 10.5762 6.25002C10.5762 5.6771 10.7803 5.18683 11.1887 4.77919C11.5963 4.37085 12.0866 4.16669 12.6595 4.16669C13.2324 4.16669 13.723 4.37085 14.1314 4.77919C14.539 5.18683 14.7428 5.6771 14.7428 6.25002C14.7428 6.82294 14.539 7.31321 14.1314 7.72085C13.723 8.12919 13.2324 8.33335 12.6595 8.33335ZM18.9095 8.33335C18.3366 8.33335 17.846 8.12919 17.4376 7.72085C17.03 7.31321 16.8262 6.82294 16.8262 6.25002C16.8262 5.6771 17.03 5.18683 17.4376 4.77919C17.846 4.37085 18.3366 4.16669 18.9095 4.16669C19.4824 4.16669 19.973 4.37085 20.3814 4.77919C20.789 5.18683 20.9928 5.6771 20.9928 6.25002C20.9928 6.82294 20.789 7.31321 20.3814 7.72085C19.973 8.12919 19.4824 8.33335 18.9095 8.33335Z" fill="black"/>
</g>
</svg>
