<svg width="25" height="24" viewBox="0 0 25 24" fill="none" xmlns="http://www.w3.org/2000/svg">
<path d="M12.1002 19.2C12.5202 19.2 12.8754 19.0548 13.1658 18.7644C13.4554 18.4748 13.6002 18.12 13.6002 17.7C13.6002 17.28 13.4554 16.9252 13.1658 16.6356C12.8754 16.3452 12.5202 16.2 12.1002 16.2C11.6802 16.2 11.325 16.3452 11.0346 16.6356C10.745 16.9252 10.6002 17.28 10.6002 17.7C10.6002 18.12 10.745 18.4748 11.0346 18.7644C11.325 19.0548 11.6802 19.2 12.1002 19.2ZM12.2802 6.84C12.8402 6.84 13.2902 6.9948 13.6302 7.3044C13.9702 7.6148 14.1402 8.02 14.1402 8.52C14.1402 8.86 14.0254 9.2048 13.7958 9.5544C13.5654 9.9048 13.2402 10.27 12.8202 10.65C12.2202 11.17 11.7802 11.67 11.5002 12.15C11.2202 12.63 11.0802 13.11 11.0802 13.59C11.0802 13.87 11.1854 14.1048 11.3958 14.2944C11.6054 14.4848 11.8502 14.58 12.1302 14.58C12.4102 14.58 12.6602 14.48 12.8802 14.28C13.1002 14.08 13.2402 13.83 13.3002 13.53C13.3602 13.19 13.4954 12.8752 13.7058 12.5856C13.9154 12.2952 14.2602 11.92 14.7402 11.46C15.3602 10.88 15.7954 10.35 16.0458 9.87C16.2954 9.39 16.4202 8.86 16.4202 8.28C16.4202 7.26 16.0354 6.4248 15.2658 5.7744C14.4954 5.1248 13.5002 4.8 12.2802 4.8C11.4402 4.8 10.6954 4.96 10.0458 5.28C9.39536 5.6 8.89016 6.09 8.53016 6.75C8.39016 7.01 8.34016 7.2648 8.38016 7.5144C8.42016 7.7648 8.56016 7.97 8.80016 8.13C9.06016 8.29 9.34536 8.34 9.65576 8.28C9.96536 8.22 10.2202 8.05 10.4202 7.77C10.6402 7.47 10.9054 7.24 11.2158 7.08C11.5254 6.92 11.8802 6.84 12.2802 6.84ZM12.1602 24C10.5202 24 8.97016 23.6848 7.51016 23.0544C6.05016 22.4248 4.77536 21.57 3.68576 20.49C2.59536 19.41 1.73536 18.14 1.10576 16.68C0.475356 15.22 0.160156 13.66 0.160156 12C0.160156 10.34 0.475356 8.78 1.10576 7.32C1.73536 5.86 2.59536 4.59 3.68576 3.51C4.77536 2.43 6.05016 1.5748 7.51016 0.9444C8.97016 0.3148 10.5202 0 12.1602 0C13.8402 0 15.4102 0.3148 16.8702 0.9444C18.3302 1.5748 19.6002 2.43 20.6802 3.51C21.7602 4.59 22.6102 5.86 23.2302 7.32C23.8502 8.78 24.1602 10.34 24.1602 12C24.1602 13.66 23.8502 15.22 23.2302 16.68C22.6102 18.14 21.7602 19.41 20.6802 20.49C19.6002 21.57 18.3302 22.4248 16.8702 23.0544C15.4102 23.6848 13.8402 24 12.1602 24Z" fill="black"/>
</svg>
