<svg width="22" height="19" viewBox="0 0 22 19" fill="none" xmlns="http://www.w3.org/2000/svg">
<path d="M5.88743 8.95184H14.0692V1.5882C14.0692 1.37121 13.983 1.1631 13.8296 1.00966C13.6762 0.856221 13.4681 0.77002 13.2511 0.77002H0.978338C0.761343 0.77002 0.553235 0.856221 0.399796 1.00966C0.246357 1.1631 0.160156 1.37121 0.160156 1.5882V17.9518C0.160156 18.1688 0.246357 18.3769 0.399796 18.5304C0.553235 18.6838 0.761343 18.77 0.978338 18.77H13.2511C13.4681 18.77 13.6762 18.6838 13.8296 18.5304C13.983 18.3769 14.0692 18.1688 14.0692 17.9518V10.5882H5.88743V8.95184ZM21.1931 9.19167L16.5238 4.52189L15.3666 5.67911L18.6393 8.95184H14.0692V10.5882H18.6393L15.3666 13.8609L16.5238 15.0181L21.1931 10.3484C21.3464 10.1949 21.4325 9.98692 21.4325 9.77002C21.4325 9.55312 21.3464 9.34509 21.1931 9.19167Z" fill="#6E7780"/>
</svg>
