<svg width="26" height="25" viewBox="0 0 26 25" fill="none" xmlns="http://www.w3.org/2000/svg">
<mask id="mask0_5201_11801" style="mask-type:alpha" maskUnits="userSpaceOnUse" x="0" y="0" width="26" height="25">
<rect x="0.160156" width="25" height="25" fill="#D9D9D9"/>
</mask>
<g mask="url(#mask0_5201_11801)">
<path d="M12.5299 20.8334C12.5994 20.8334 12.6688 20.816 12.7383 20.7813C12.8077 20.7466 12.8598 20.7118 12.8945 20.6771L21.4362 12.1355C21.6445 11.9271 21.7966 11.6927 21.8924 11.4323C21.9876 11.1719 22.0352 10.9115 22.0352 10.6511C22.0352 10.3733 21.9876 10.1084 21.8924 9.85629C21.7966 9.6049 21.6445 9.38372 21.4362 9.19275L17.0091 4.76567C16.8181 4.55733 16.597 4.40525 16.3456 4.30942C16.0935 4.21428 15.8286 4.16671 15.5508 4.16671C15.2904 4.16671 15.0299 4.21428 14.7695 4.30942C14.5091 4.40525 14.2747 4.55733 14.0664 4.76567L13.7799 5.05212L15.707 7.00525C15.9674 7.2483 16.1584 7.52608 16.2799 7.83858C16.4015 8.15108 16.4622 8.48094 16.4622 8.82817C16.4622 9.55733 16.215 10.1691 15.7206 10.6636C15.2254 11.1587 14.6133 11.4063 13.8841 11.4063C13.5369 11.4063 13.2029 11.3455 12.882 11.224C12.5605 11.1025 12.2782 10.9202 12.0352 10.6771L10.082 8.75004L5.52474 13.3073C5.47266 13.3594 5.43342 13.416 5.40703 13.4771C5.38134 13.5375 5.36849 13.6025 5.36849 13.6719C5.36849 13.8108 5.42057 13.9365 5.52474 14.049C5.62891 14.1622 5.75043 14.2188 5.88932 14.2188C5.95877 14.2188 6.02821 14.2014 6.09766 14.1667C6.1671 14.132 6.21918 14.0973 6.25391 14.0625L9.79557 10.5209L11.2539 11.9792L7.73828 15.5209C7.6862 15.573 7.64696 15.6292 7.62057 15.6896C7.59488 15.7507 7.58203 15.816 7.58203 15.8855C7.58203 16.0243 7.63411 16.1459 7.73828 16.25C7.84245 16.3542 7.96398 16.4063 8.10286 16.4063C8.17231 16.4063 8.24175 16.3889 8.3112 16.3542C8.38064 16.3195 8.43273 16.2848 8.46745 16.25L12.0091 12.7344L13.4674 14.1927L9.95182 17.7344C9.89974 17.7691 9.86085 17.8212 9.83516 17.8907C9.80877 17.9601 9.79557 18.0296 9.79557 18.099C9.79557 18.2379 9.84766 18.3594 9.95182 18.4636C10.056 18.5678 10.1775 18.6198 10.3164 18.6198C10.3859 18.6198 10.4511 18.6066 10.5122 18.5802C10.5727 18.5546 10.6289 18.5157 10.681 18.4636L14.2227 14.948L15.681 16.4063L12.1393 19.948C12.0872 20 12.0484 20.0563 12.0227 20.1167C11.9963 20.1778 11.9831 20.2431 11.9831 20.3125C11.9831 20.4514 12.0397 20.573 12.1529 20.6771C12.2654 20.7813 12.3911 20.8334 12.5299 20.8334ZM12.5039 22.9167C11.8615 22.9167 11.2931 22.7039 10.7987 22.2782C10.3036 21.8532 10.0126 21.3195 9.92578 20.6771C9.3355 20.5903 8.84071 20.3473 8.44141 19.948C8.0421 19.5487 7.79905 19.0539 7.71224 18.4636C7.12196 18.3768 6.63168 18.1296 6.24141 17.7219C5.85043 17.3136 5.61155 16.823 5.52474 16.25C4.86502 16.1632 4.32682 15.8768 3.91016 15.3907C3.49349 14.9046 3.28516 14.3316 3.28516 13.6719C3.28516 13.3247 3.35043 12.9903 3.48099 12.6688C3.61085 12.348 3.79731 12.066 4.04036 11.823L10.082 5.80733L13.4935 9.21879C13.5282 9.27087 13.5803 9.30976 13.6497 9.33546C13.7192 9.36185 13.7886 9.37504 13.8581 9.37504C14.0143 9.37504 14.1445 9.32747 14.2487 9.23233C14.3529 9.1365 14.4049 9.01046 14.4049 8.85421C14.4049 8.78476 14.3921 8.71532 14.3664 8.64587C14.34 8.57643 14.3008 8.52435 14.2487 8.48962L10.5247 4.76567C10.3338 4.55733 10.1122 4.40525 9.86016 4.30942C9.60877 4.21428 9.34418 4.16671 9.06641 4.16671C8.80599 4.16671 8.54557 4.21428 8.28516 4.30942C8.02474 4.40525 7.79036 4.55733 7.58203 4.76567L3.91016 8.46358C3.75391 8.61983 3.6237 8.80212 3.51953 9.01046C3.41536 9.21879 3.34592 9.42712 3.3112 9.63546C3.27648 9.84379 3.27648 10.0563 3.3112 10.273C3.34592 10.4903 3.41536 10.6945 3.51953 10.8855L2.00911 12.3959C1.71398 11.9966 1.49696 11.558 1.35807 11.0802C1.21918 10.6032 1.1671 10.1216 1.20182 9.63546C1.23655 9.14935 1.35807 8.67608 1.56641 8.21567C1.77474 7.75594 2.0612 7.34379 2.42578 6.97921L6.09766 3.30733C6.51432 2.90803 6.97891 2.60421 7.49141 2.39587C8.00321 2.18754 8.52821 2.08337 9.06641 2.08337C9.6046 2.08337 10.1296 2.18754 10.6414 2.39587C11.1539 2.60421 11.6098 2.90803 12.0091 3.30733L12.2956 3.59379L12.582 3.30733C12.9987 2.90803 13.4629 2.60421 13.9747 2.39587C14.4872 2.18754 15.0126 2.08337 15.5508 2.08337C16.089 2.08337 16.6143 2.18754 17.1268 2.39587C17.6386 2.60421 18.0942 2.90803 18.4935 3.30733L22.8945 7.70837C23.2938 8.10768 23.5977 8.56775 23.806 9.08858C24.0143 9.60942 24.1185 10.1389 24.1185 10.6771C24.1185 11.2153 24.0143 11.7403 23.806 12.2521C23.5977 12.7646 23.2938 13.2205 22.8945 13.6198L14.3529 22.1355C14.1098 22.3785 13.8275 22.5695 13.506 22.7084C13.1852 22.8473 12.8511 22.9167 12.5039 22.9167Z" fill="black"/>
</g>
</svg>
