<svg width="19" height="21" viewBox="0 0 19 21" fill="none" xmlns="http://www.w3.org/2000/svg">
<path d="M17.2802 13.73L15.1602 15.86L13.0402 13.73L11.6202 15.15L13.7502 17.27L11.6202 19.39L13.0402 20.81L15.1602 18.68L17.2802 20.81L18.7002 19.39L16.5702 17.27L18.7002 15.15M2.16016 0.27002C1.05016 0.27002 0.160156 1.16002 0.160156 2.27002V18.27C0.160156 19.38 1.05016 20.27 2.16016 20.27H9.97016C9.44016 19.36 9.16016 18.32 9.16016 17.27C9.16016 16.94 9.19016 16.6 9.24016 16.27H2.16016V14.27H9.97016C10.4302 13.47 11.0702 12.77 11.8402 12.27H2.16016V10.27H14.1602V11.35C14.4902 11.3 14.8302 11.27 15.1602 11.27C15.5002 11.27 15.8302 11.3 16.1602 11.35V6.27002L10.1602 0.27002M9.16016 1.77002L14.6602 7.27002H9.16016V1.77002Z" fill="#6E7780"/>
</svg>
