<svg width="26" height="25" viewBox="0 0 26 25" fill="none" xmlns="http://www.w3.org/2000/svg">
<mask id="mask0_5201_11791" style="mask-type:alpha" maskUnits="userSpaceOnUse" x="0" y="0" width="26" height="25">
<rect x="0.160156" width="25" height="25" fill="#D9D9D9"/>
</mask>
<g mask="url(#mask0_5201_11791)">
<path d="M6.41081 20.8334C5.26497 20.8334 4.28407 20.4254 3.4681 19.6094C2.65213 18.7934 2.24414 17.8125 2.24414 16.6667V8.33335C2.24414 7.18752 2.65213 6.20662 3.4681 5.39065C4.28407 4.57467 5.26497 4.16669 6.41081 4.16669H18.9108C20.0566 4.16669 21.0375 4.57467 21.8535 5.39065C22.6695 6.20662 23.0775 7.18752 23.0775 8.33335V16.6667C23.0775 17.8125 22.6695 18.7934 21.8535 19.6094C21.0375 20.4254 20.0566 20.8334 18.9108 20.8334H6.41081ZM6.41081 8.33335H18.9108C19.2928 8.33335 19.6573 8.37676 20.0046 8.46356C20.3518 8.55037 20.6816 8.68926 20.9941 8.88023V8.33335C20.9941 7.76044 20.7903 7.27016 20.3827 6.86252C19.9743 6.45419 19.4837 6.25002 18.9108 6.25002H6.41081C5.83789 6.25002 5.34761 6.45419 4.93997 6.86252C4.53164 7.27016 4.32747 7.76044 4.32747 8.33335V8.88023C4.63997 8.68926 4.96984 8.55037 5.31706 8.46356C5.66428 8.37676 6.02886 8.33335 6.41081 8.33335ZM4.48372 11.7188L16.0723 14.5313C16.2285 14.566 16.3848 14.566 16.541 14.5313C16.6973 14.4965 16.8448 14.4271 16.9837 14.3229L20.6035 11.3021C20.4125 11.0417 20.1695 10.8292 19.8743 10.6646C19.5792 10.4993 19.258 10.4167 18.9108 10.4167H6.41081C5.95942 10.4167 5.56463 10.5337 5.22643 10.7677C4.88754 11.0025 4.63997 11.3195 4.48372 11.7188Z" fill="black"/>
</g>
</svg>
