<svg width="32" height="44" viewBox="0 0 32 44" fill="none" xmlns="http://www.w3.org/2000/svg">
<path d="M30 42V27.8C29.9996 25.9612 29.637 24.1404 28.9328 22.4418C28.2286 20.7431 27.1967 19.1998 25.896 17.9L21.996 14V27.174C21.996 28.954 19.842 29.848 18.582 28.588L15.992 26C14.992 25 12.59 24.4 10.988 26C9.388 27.6 9.988 30 10.988 31L21.996 42M14 2H18C19.0609 2 20.0783 2.42143 20.8284 3.17157C21.5786 3.92172 22 4.93913 22 6V10M14 2C14 4.666 15.6 10 22 10M14 2H10M22 10V22M10 2H6C4.93913 2 3.92172 2.42143 3.17157 3.17157C2.42143 3.92172 2 4.93913 2 6V10M10 2C10 4.666 8.4 10 2 10M2 22V26C2 27.0609 2.42143 28.0783 3.17157 28.8284C3.92172 29.5786 4.93913 30 6 30H10C10 27.334 8.4 22 2 22ZM2 22V10M12 18C10.8954 18 10 17.1046 10 16C10 14.8954 10.8954 14 12 14C13.1046 14 14 14.8954 14 16C14 17.1046 13.1046 18 12 18Z" stroke="#1A58D3" stroke-width="3" stroke-linecap="round" stroke-linejoin="round"/>
</svg>
