<svg width="25" height="25" viewBox="0 0 25 25" fill="none" xmlns="http://www.w3.org/2000/svg">
<mask id="mask0_454_7758" style="mask-type:alpha" maskUnits="userSpaceOnUse" x="0" y="0" width="25" height="25">
<rect x="0.5" y="0.0742188" width="24" height="24" fill="#D9D9D9"/>
</mask>
<g mask="url(#mask0_454_7758)">
<path d="M11.5 17.0742H13.5V13.0742H17.5V11.0742H13.5V7.07422H11.5V11.0742H7.5V13.0742H11.5V17.0742ZM12.5 22.0742C11.1167 22.0742 9.81667 21.8116 8.6 21.2862C7.38333 20.7616 6.325 20.0492 5.425 19.1492C4.525 18.2492 3.81267 17.1909 3.288 15.9742C2.76267 14.7576 2.5 13.4576 2.5 12.0742C2.5 10.6909 2.76267 9.39089 3.288 8.17422C3.81267 6.95755 4.525 5.89922 5.425 4.99922C6.325 4.09922 7.38333 3.38655 8.6 2.86122C9.81667 2.33655 11.1167 2.07422 12.5 2.07422C13.8833 2.07422 15.1833 2.33655 16.4 2.86122C17.6167 3.38655 18.675 4.09922 19.575 4.99922C20.475 5.89922 21.1873 6.95755 21.712 8.17422C22.2373 9.39089 22.5 10.6909 22.5 12.0742C22.5 13.4576 22.2373 14.7576 21.712 15.9742C21.1873 17.1909 20.475 18.2492 19.575 19.1492C18.675 20.0492 17.6167 20.7616 16.4 21.2862C15.1833 21.8116 13.8833 22.0742 12.5 22.0742ZM12.5 20.0742C14.7333 20.0742 16.625 19.2992 18.175 17.7492C19.725 16.1992 20.5 14.3076 20.5 12.0742C20.5 9.84089 19.725 7.94922 18.175 6.39922C16.625 4.84922 14.7333 4.07422 12.5 4.07422C10.2667 4.07422 8.375 4.84922 6.825 6.39922C5.275 7.94922 4.5 9.84089 4.5 12.0742C4.5 14.3076 5.275 16.1992 6.825 17.7492C8.375 19.2992 10.2667 20.0742 12.5 20.0742Z" fill="white"/>
</g>
</svg>
