<svg width="170" height="57" viewBox="0 0 170 57" fill="none" xmlns="http://www.w3.org/2000/svg">
<path fill-rule="evenodd" clip-rule="evenodd" d="M161.572 44.2255V47.5626H154.993V44.2885L155.087 44.2255C155.528 44.0996 155.78 43.9107 155.874 43.6589C155.969 43.3755 156.032 42.7774 156.032 41.8329V31.2237C156.032 30.3107 156 29.7126 155.874 29.4292C155.769 29.1774 155.517 28.9885 155.119 28.8626H155.024V25.557H160.659V41.8329C160.659 42.8404 160.691 43.4385 160.785 43.6589C160.88 43.8792 161.132 44.0681 161.604 44.2255H161.572ZM62.9724 41.6441C62.9724 43.9737 62.4057 45.5478 61.3039 46.3663C60.1705 47.1848 58.5335 47.5941 56.3613 47.5941H46.6965V44.0367C47.2002 43.9107 47.515 43.7218 47.6409 43.4385C47.7983 43.1552 47.8613 42.62 47.8613 41.8329V31.3811C47.8613 30.5626 47.7983 30.0274 47.6724 29.7441C47.5465 29.4922 47.2316 29.2718 46.7279 29.1774V25.62H55.3854C56.3928 25.62 57.1798 25.6515 57.715 25.7144C58.2816 25.7774 58.9428 25.9663 59.6983 26.2496C60.4539 26.533 61.1465 27.1626 61.7446 28.107C62.3428 29.0515 62.6261 30.1848 62.6261 31.5385C62.6261 34.1515 61.5242 35.757 59.3835 36.3867C61.7761 36.8904 62.9724 38.6533 62.9724 41.6441ZM52.9298 34.2774H55.1965C56.015 34.2774 56.6131 34.0885 56.9909 33.7422C57.3687 33.3959 57.5576 32.7978 57.5576 31.9792C57.5576 30.5311 56.7391 29.7755 55.0705 29.7755H52.9298V34.2774ZM57.9039 40.6996C57.9039 39.7552 57.715 39.0941 57.2742 38.6848C56.865 38.2755 56.1409 38.0867 55.165 38.0867H52.9298V43.3755H55.1965C56.1724 43.3755 56.8965 43.1552 57.3057 42.7459C57.715 42.3367 57.9354 41.6441 57.9039 40.6996ZM71.3465 44.2255V47.5626H64.7668V44.2885L64.8613 44.2255C65.302 44.0996 65.5539 43.9107 65.6483 43.6589C65.7428 43.3755 65.8057 42.7774 65.8057 41.8329V31.2237C65.8057 30.3107 65.7742 29.7126 65.6483 29.4292C65.5434 29.1774 65.2915 28.9885 64.8928 28.8626H64.7983V25.557H70.402V41.8329C70.402 42.8404 70.4335 43.4385 70.5279 43.6589C70.6224 43.8792 70.8742 44.0681 71.3465 44.2255ZM46.665 19.4181C46.665 19.4181 46.5076 19.5126 46.5076 19.8274C46.5076 19.8274 46.9798 21.6533 45.5002 22.22C44.0205 22.7552 43.0446 21.7478 43.0446 21.7478C43.0446 21.7478 41.8483 20.2996 40.1168 20.1107C40.1168 20.1107 39.2354 20.0793 39.5187 20.9292C39.5187 20.9292 39.5816 21.5589 40.2428 21.307C40.2428 21.307 41.3131 20.7089 42.1002 21.8422C42.1002 21.8422 42.6039 23.1959 44.3668 23.2274C44.3668 23.2274 43.1705 24.6126 39.5502 22.5978C39.5502 22.5978 36.1187 20.3626 34.4502 20.9922C34.4502 20.9922 31.7742 21.9996 32.5613 24.77L33.5687 28.7996C33.5687 28.7996 34.4502 30.783 31.9316 31.633C31.9316 31.633 26.5798 32.9237 24.7539 35.4737C24.7539 35.4737 23.0854 38.1811 21.6687 39.2515C21.6687 39.2515 19.4965 41.9274 15.3409 42.2107C15.3409 42.2107 20.3779 40.3533 21.952 33.5848C21.952 33.5848 22.5502 27.32 27.3983 25.7144C27.3983 25.7144 30.1057 25.0848 30.8298 22.1255C30.8298 22.1255 31.6168 19.3552 35.4576 17.8441C35.4576 17.8441 34.6391 17.2459 33.4113 18.1904L31.6798 19.4811C31.6798 19.4811 31.1761 20.1107 29.7594 19.8274C29.7594 19.8274 27.6816 19.67 26.265 19.67C26.265 19.67 25.0372 19.67 25.1946 18.1904C25.1946 18.1904 25.2891 16.5218 25.0057 15.7348C25.0057 15.7348 24.7539 14.3181 25.6039 13.5311C25.6039 13.5311 24.6909 13.2163 24.4391 15.0422C24.4391 15.0422 24.3761 17.7811 24.1872 18.4737C24.1872 18.4737 23.6205 20.3311 25.4779 20.4255L28.9724 20.3626C28.9724 20.3626 30.8298 20.2681 30.5779 21.7478C30.5779 21.7478 30.1687 23.7941 26.8316 25.0848C26.8316 25.0848 22.1094 26.1552 20.7872 30.0274C20.7872 30.0274 19.6539 32.2941 18.9613 36.2607C18.9613 36.2607 19.2131 39.8181 14.5539 41.4237C7.78535 43.8478 6.30572 47.3737 6.30572 47.3737C5.55017 48.3181 5.70757 48.9478 5.70757 48.9478C5.70757 49.6404 5.10943 51.5607 5.10943 51.5607C3.88165 54.9922 1.70943 53.8589 1.70943 53.8589C1.01683 53.7015 0.0409079 52.4737 0.0409079 52.4737C-0.273907 51.8441 1.33165 50.5218 1.33165 50.5218C2.27609 49.7348 3.94461 47.1218 3.94461 47.1218C4.70017 46.2718 4.32239 44.8552 4.32239 44.8552C4.25943 43.9107 4.76313 43.6274 4.76313 43.6274C5.14091 43.2496 5.20387 43.2496 5.20387 43.2496C6.93535 40.3533 6.93535 36.8274 6.93535 36.8274C6.77795 35.033 6.14832 36.4496 6.14832 36.4496C5.17239 38.4644 4.6372 41.1718 4.6372 41.1718C4.19646 38.7163 5.86498 34.4348 5.86498 34.4348C6.52609 33.0496 7.15572 31.0348 7.15572 31.0348C7.50202 29.7441 6.99831 29.9959 6.99831 29.9959C6.21128 30.0904 6.05387 30.5311 6.05387 30.5311C4.25943 33.6478 3.66128 42.2737 3.66128 42.2737C3.15757 34.2774 5.42424 29.87 5.42424 29.87C5.73906 29.2718 5.67609 28.9255 5.67609 28.9255C5.58165 28.1385 5.23535 28.9255 5.23535 28.9255C4.35387 30.4996 3.03165 36.1978 3.03165 36.1978C3.97609 29.0515 6.43165 25.2107 6.43165 25.2107C6.43165 25.2107 8.06869 21.8107 8.16313 25.9978C8.3835 28.6422 9.42239 28.3904 9.42239 28.3904C8.22609 22.7237 11.0279 19.8904 11.0279 19.8904C11.5946 19.2922 10.3039 19.7959 10.3039 19.7959C8.8872 20.6774 7.84832 22.2515 7.84832 22.2515C12.2557 13.4996 18.1113 16.6478 18.1113 16.6478C14.0816 18.2848 13.0428 22.2515 13.0428 22.2515C15.0891 19.1033 22.2668 14.7904 22.2668 14.7904C19.4335 15.7663 16.5372 15.1681 16.5372 15.1681C19.9372 14.3811 22.2353 11.7681 22.2353 11.7681C24.8168 13.0589 25.9816 12.02 25.9816 12.02C24.2187 12.3033 22.9279 11.0441 22.9279 11.0441C22.8335 9.6274 22.2353 8.74591 22.2353 8.74591C21.2909 7.51814 20.9446 6.29036 20.9446 6.29036C22.5816 4.59036 27.5242 8.90332 27.5242 8.90332C22.7705 4.36999 26.202 1.50517 26.202 1.50517C28.1854 -0.604085 32.4983 0.119989 32.4983 0.119989C36.0242 0.623693 39.4242 0.812582 39.4242 0.812582C39.4242 0.812582 35.8983 2.92184 31.0816 2.9848C31.0816 2.9848 28.815 2.76443 28.5316 3.36258C28.5316 3.36258 27.4298 5.15703 30.0428 6.44777C30.0428 6.44777 30.7353 7.48666 28.5316 8.46258C28.5316 8.46258 30.1372 8.96628 30.6409 7.14036C31.1446 5.31443 33.7891 6.19591 33.7891 6.19591C33.7891 6.19591 35.9928 6.63666 39.7076 9.94221C39.7076 9.94221 40.8094 10.8237 40.7465 12.5867C40.7465 12.5867 40.4946 13.1848 41.3761 13.9089C41.3761 13.9089 42.6039 15.5144 44.4613 15.8607C44.4613 15.8607 45.752 15.8292 45.8465 16.6478C45.8779 17.0885 46.5391 17.183 46.5391 17.183C46.5391 17.183 48.2391 17.7811 46.665 19.4181ZM33.7576 35.5367C32.7816 37.2367 34.7965 38.6218 34.7965 38.6218C35.7094 39.3774 35.9613 39.6607 35.9613 39.6607C38.2594 42.9978 34.1983 45.5478 34.1983 45.5478C32.152 47.0904 32.3409 48.507 32.3409 48.507C32.4354 49.8292 32.1835 51.1515 32.1835 51.1515C31.7428 52.7885 30.3576 51.6552 30.3576 51.6552C28.6261 50.3015 28.3428 48.6959 28.3428 48.6959C27.9965 47.7829 28.9724 47.5311 28.9724 47.5311C29.5705 46.9959 29.5705 45.4848 29.5705 45.4848C29.6335 44.3829 30.4205 44.32 30.4205 44.32C31.302 44.0681 31.5539 43.2811 31.5539 43.2811C32.2779 41.9589 30.0742 40.7311 30.0742 40.7311C27.0205 39.0626 22.1094 41.0144 22.1094 41.0144C29.2242 28.8941 39.4242 34.97 39.4242 34.97C34.2613 33.7422 33.7261 35.5681 33.7576 35.5367ZM36.7798 10.5718C36.7798 10.5718 35.6779 9.34406 34.765 9.53295C34.765 9.53295 33.915 9.46999 33.8205 10.5089C33.8205 10.5089 33.5372 11.107 34.4502 11.233L36.2131 11.2644C36.2131 11.2644 37.5354 11.2015 36.7798 10.5718ZM45.4057 17.12C45.0594 16.4904 44.1779 16.8367 44.1779 16.8367C44.1779 16.8367 43.8316 16.9626 44.115 17.2774C44.3983 17.5922 44.0835 17.8755 44.0835 17.8755C44.0835 17.8755 43.9261 18.6626 44.7131 18.5052C45.9409 18.2848 45.4372 17.12 45.4057 17.12ZM38.2909 8.11629C39.5187 7.10888 43.5168 6.10147 45.1224 7.04591C46.7594 7.99036 49.4983 7.5811 49.4983 7.5811C46.602 9.7848 42.6668 8.99777 42.6668 8.99777C41.6594 9.53295 40.1483 9.53295 40.1483 9.53295C39.6761 8.84036 38.2909 8.11629 38.2909 8.11629ZM87.1502 44.2885H87.2761V47.5626H81.8928V46.0515C80.2872 47.2792 78.7131 47.8774 77.1391 47.8774C75.8483 47.8774 74.8409 47.4681 74.0854 46.6496C73.3298 45.8311 72.952 44.7292 72.952 43.3755C72.952 42.2107 73.2354 41.2663 73.802 40.5737C74.3687 39.8811 75.4076 39.22 76.8872 38.6218L80.2872 37.3941L81.6409 36.9218V36.2292C81.6409 34.8441 81.1057 34.1515 80.0354 34.1515C78.9335 34.1515 78.3983 34.8441 78.3983 36.1978V36.5755H73.7705V32.6718C76.1002 31.5385 78.3039 30.9718 80.3502 30.9718C82.1761 30.9718 83.5928 31.3496 84.6631 32.1367C85.7335 32.9237 86.2687 33.9626 86.2687 35.2848V41.8959C86.2687 42.9033 86.3316 43.5329 86.4261 43.7848C86.5205 44.0367 86.7724 44.1941 87.1502 44.2885ZM81.6409 42.8089V40.1959L80.1298 40.92C79.2798 41.2978 78.6816 41.6755 78.3354 41.9904C77.9891 42.3052 77.8316 42.683 77.8316 43.0607C77.8316 43.3755 77.9576 43.6589 78.2094 43.9107C78.4613 44.1626 78.7446 44.2885 79.0909 44.2885C79.8465 44.2885 80.6965 43.7848 81.6724 42.8089H81.6409ZM169.852 44.2255V47.5626H163.272V44.2885L163.367 44.2255C163.808 44.0996 164.059 43.9107 164.154 43.6589C164.248 43.3755 164.311 42.7774 164.311 41.8329V31.2237C164.311 30.3107 164.248 29.7126 164.154 29.4292C164.049 29.1774 163.797 28.9885 163.398 28.8626H163.304V25.557H168.939V41.8329C168.939 42.8404 168.971 43.4385 169.065 43.6589C169.159 43.8792 169.411 44.0681 169.883 44.2255H169.852ZM147.721 46.5867C146.839 47.0589 146.115 47.3737 145.517 47.5626C144.919 47.72 144.258 47.8144 143.533 47.8144C141.865 47.8144 140.669 47.3422 139.945 46.4292C139.221 45.5163 138.874 44.3829 138.874 43.0922V36.9218C138.874 36.0089 138.811 35.4107 138.717 35.0959C138.622 34.8126 138.371 34.6237 137.961 34.5607H137.835V31.2867H143.156C143.282 31.8218 143.408 32.2626 143.439 32.6404C143.471 33.0181 143.502 33.6792 143.502 34.6552V41.8644C143.502 42.6515 143.691 43.2496 144.037 43.6904C144.383 44.1311 144.887 44.3515 145.58 44.3515C146.178 44.3515 146.902 44.0996 147.721 43.5644V36.9848C147.721 36.0718 147.658 35.4422 147.563 35.1589C147.437 34.886 147.185 34.6971 146.808 34.5922H146.713V31.3181H152.317V41.8644C152.317 42.8089 152.38 43.407 152.474 43.6904C152.569 43.9737 152.852 44.1311 153.261 44.2255H153.387V47.5626H147.721V46.5867ZM147.909 53.1348L149.767 55.7478H148.413L147.154 53.7959L146.776 54.2367V55.7478H145.674V49.3255H146.776V53.2607H146.808C146.902 53.1033 147.028 52.9144 147.154 52.757L148.224 51.3404H149.546L147.909 53.1348ZM156.976 53.3867C156.976 53.607 156.976 53.7644 156.945 53.8589H153.985C154.017 54.6459 154.646 54.9922 155.339 54.9922C155.874 54.9922 156.221 54.9292 156.567 54.8033L156.724 55.5589C156.346 55.7163 155.811 55.8422 155.182 55.8422C153.765 55.8422 152.915 54.9607 152.915 53.607C152.915 52.3792 153.639 51.2459 155.056 51.2459C156.504 51.2459 156.976 52.4107 156.976 53.3867ZM155.906 53.0718C155.906 52.6626 155.748 52.0015 154.993 52.0015C154.332 52.0015 154.017 52.6311 153.985 53.0718H155.906ZM162.139 50.207H162.108H162.139ZM162.108 50.207V51.3404H163.178V52.1589H162.108V54.1107C162.108 54.6459 162.265 54.9292 162.674 54.9292C162.895 54.9292 162.989 54.8978 163.115 54.8663L163.146 55.7163C162.989 55.7792 162.706 55.8422 162.359 55.8422C161.95 55.8422 161.635 55.6848 161.415 55.4644C161.163 55.2126 161.069 54.8033 161.069 54.2367V52.1589H160.439V51.3404H161.069V50.5218L162.108 50.207ZM169.852 54.4885C169.852 55.2755 169.222 55.8737 168.058 55.8737C167.554 55.8737 167.05 55.7478 166.735 55.5589L166.956 54.7404C167.208 54.8978 167.68 55.0552 168.089 55.0552C168.561 55.0552 168.782 54.8348 168.782 54.5515C168.782 54.2681 168.593 54.1107 168.058 53.9218C167.208 53.607 166.861 53.1348 166.861 52.6311C166.861 51.8441 167.522 51.2459 168.53 51.2459C169.002 51.2459 169.443 51.3718 169.695 51.4978L169.474 52.2848C169.285 52.1904 168.939 52.033 168.561 52.033C168.183 52.033 167.963 52.2218 167.963 52.5052C167.963 52.757 168.152 52.9144 168.719 53.1033C169.506 53.4181 169.883 53.8274 169.852 54.4885ZM118.317 44.3515V47.5941H114.256C113.972 47.3107 113.721 46.9959 113.5 46.6811C113.28 46.3663 112.965 45.8311 112.556 45.1385L109.502 39.8496V41.8959C109.502 42.8613 109.534 43.428 109.596 43.5959C109.659 43.7428 109.785 43.9002 109.974 44.0681L110.226 44.2255H110.446V47.5626H103.835V44.2885L103.93 44.2255C104.308 44.1206 104.559 43.9317 104.685 43.6589C104.78 43.3755 104.843 42.7774 104.843 41.8644V31.2552C104.843 30.3422 104.811 29.7441 104.685 29.4607C104.591 29.1774 104.339 28.9885 103.93 28.8626H103.835V25.5885H109.471V36.7644L111.202 34.8126C111.548 34.4033 111.8 34.0255 111.895 33.7422C111.989 33.4589 112.052 33.0181 112.052 32.42V31.2867H117.939V34.5607C117.467 34.6552 117.121 34.8126 116.9 34.97C116.711 35.1274 116.302 35.5367 115.735 36.1663L113.972 38.1496L116.239 42.3367C116.743 43.3441 117.435 44.0367 118.317 44.3515ZM95.6816 31.0033C97.665 31.0033 99.7742 31.6015 101.946 32.7978V37.3626H97.6335V36.9533C97.6335 36.607 97.6335 36.3237 97.602 36.1663C97.602 36.0089 97.5391 35.7885 97.4446 35.5367C97.3502 35.2848 97.1613 35.033 96.815 34.7811C96.4687 34.5293 96.1224 34.4033 95.7446 34.4033C94.3909 34.4033 93.7298 35.0959 93.7298 36.5441V42.1792C93.7298 43.7218 94.3909 44.4774 95.7131 44.4774C96.1119 44.4774 96.4897 44.3515 96.8465 44.0996C97.1928 43.8478 97.4131 43.5644 97.4761 43.3126C97.5705 43.0292 97.602 42.7459 97.602 42.4311C97.602 42.1163 97.602 41.77 97.6335 41.3922V40.8885H101.946V46.0515C100.309 47.2478 98.2316 47.8459 95.7131 47.8459C93.2576 47.8459 91.6205 47.4367 90.802 46.5867C89.952 45.7681 89.4798 45.107 89.3224 44.6348C89.165 44.1626 89.102 43.407 89.102 42.3996V36.0718C89.102 34.5292 89.7002 33.27 90.865 32.357C92.0298 31.4441 93.6353 30.9718 95.6816 31.0033ZM141.645 51.2459C141.739 51.2459 141.802 51.2459 141.896 51.2774V52.3163C141.802 52.3163 141.708 52.2848 141.582 52.2848C141.046 52.2848 140.669 52.6311 140.574 53.1348C140.574 53.2292 140.543 53.3552 140.543 53.4811V55.7478H139.441V52.757C139.441 52.1589 139.441 51.7181 139.409 51.3404H140.385L140.417 52.1904H140.448C140.669 51.5607 141.172 51.2459 141.645 51.2459ZM127.635 53.1348V55.7163H126.565V53.2922C126.565 52.5681 126.313 52.1274 125.778 52.1274C125.4 52.1274 125.117 52.4107 124.991 52.7255C124.959 52.8515 124.928 52.9774 124.928 53.1033V55.7478H123.858V53.1978C123.858 52.5996 123.606 52.1589 123.102 52.1589C122.693 52.1589 122.409 52.4737 122.315 52.7885C122.283 52.8829 122.252 53.0089 122.252 53.1348V55.7478H121.182V52.6626C121.182 52.1274 121.182 51.7181 121.15 51.3404H122.095L122.126 52.0015H122.158C122.378 51.6552 122.756 51.2459 123.511 51.2459C124.109 51.2459 124.55 51.5607 124.739 52.0644H124.771C124.928 51.8126 125.085 51.6237 125.306 51.4978C125.558 51.3404 125.841 51.2459 126.187 51.2459C126.911 51.2459 127.667 51.7496 127.635 53.1348ZM135.254 54.6459C135.254 55.0552 135.285 55.4329 135.317 55.7163H134.309L134.246 55.2441H134.215C133.963 55.5904 133.491 55.8422 132.924 55.8422C132.043 55.8422 131.539 55.1811 131.539 54.52C131.539 53.3867 132.515 52.8515 134.152 52.8515V52.7885C134.152 52.5052 134.058 52.033 133.271 52.033C132.83 52.033 132.358 52.1589 132.074 52.3478L131.854 51.6237C132.169 51.4348 132.735 51.2459 133.428 51.2459C134.845 51.2459 135.254 52.1589 135.254 53.1033V54.6459ZM134.183 53.607C133.396 53.5755 132.641 53.7644 132.641 54.4255C132.641 54.8663 132.924 55.0552 133.271 55.0552C133.711 55.0552 134.058 54.7718 134.152 54.457C134.184 54.3626 134.183 54.2681 134.183 54.2052V53.607ZM136.293 41.6441C136.293 43.9737 135.726 45.5478 134.624 46.3663C133.491 47.1848 131.854 47.5941 129.682 47.5941H120.017V44.0367C120.521 43.9107 120.804 43.7218 120.961 43.4385C121.119 43.1552 121.182 42.62 121.182 41.8329V31.3811C121.182 30.5626 121.119 30.0274 120.993 29.7441C120.867 29.4922 120.552 29.2718 120.048 29.1774V25.62H128.706C129.713 25.62 130.5 25.6515 131.035 25.7144C131.602 25.7774 132.263 25.9663 133.019 26.2496C133.774 26.533 134.467 27.1626 135.065 28.107C135.663 29.0515 135.946 30.1848 135.946 31.5385C135.946 34.1515 134.845 35.757 132.704 36.3867C135.096 36.8904 136.293 38.6533 136.293 41.6441ZM126.25 34.2774H128.517C129.335 34.2774 129.933 34.0885 130.311 33.7422C130.689 33.3959 130.878 32.7978 130.878 31.9792C130.878 30.5311 130.059 29.7755 128.391 29.7755H126.25V34.2774ZM131.224 40.6996C131.224 39.7552 131.035 39.0941 130.595 38.6848C130.185 38.2755 129.461 38.0867 128.485 38.0867H126.25V43.3755H128.517C129.493 43.3755 130.217 43.1552 130.626 42.7459C131.035 42.3367 131.256 41.6441 131.224 40.6996Z" fill="white"/>
</svg>
