<svg width="35" height="35" viewBox="0 0 35 35" fill="none" xmlns="http://www.w3.org/2000/svg">
<circle cx="17.5" cy="17.5" r="17.5" fill="#668CF0"/>
<g clip-path="url(#clip0_584_27268)">
<path d="M17.4987 7.08331C23.2518 7.08331 27.9154 11.7469 27.9154 17.5C27.9154 23.2531 23.2518 27.9166 17.4987 27.9166C11.7456 27.9166 7.08203 23.2531 7.08203 17.5C7.08203 11.7469 11.7456 7.08331 17.4987 7.08331ZM15.2893 13.8166C15.1023 13.6278 14.8502 13.5177 14.5846 13.5086C14.319 13.4996 14.06 13.5925 13.8606 13.7682C13.6612 13.9439 13.5365 14.1891 13.512 14.4538C13.4875 14.7184 13.5651 14.9824 13.7289 15.1916L13.8164 15.2906L16.0247 17.4989L13.8164 19.7094C13.6276 19.8964 13.5174 20.1485 13.5084 20.4141C13.4994 20.6797 13.5922 20.9387 13.7679 21.1381C13.9436 21.3375 14.1889 21.4622 14.4535 21.4867C14.7181 21.5111 14.9821 21.4335 15.1914 21.2698L15.2893 21.1833L17.4987 18.9729L19.7081 21.1833C19.8951 21.3721 20.1472 21.4823 20.4128 21.4913C20.6784 21.5003 20.9374 21.4075 21.1368 21.2318C21.3362 21.0561 21.4609 20.8108 21.4854 20.5462C21.5099 20.2816 21.4323 20.0176 21.2685 19.8083L21.182 19.7094L18.9716 17.5L21.182 15.2906C21.3708 15.1036 21.481 14.8515 21.49 14.5859C21.499 14.3203 21.4062 14.0613 21.2305 13.8619C21.0548 13.6625 20.8095 13.5378 20.5449 13.5133C20.2803 13.4888 20.0163 13.5664 19.807 13.7302L19.7081 13.8166L17.4987 16.0271L15.2893 13.8166Z" fill="#F8F8F8"/>
</g>
<defs>
<clipPath id="clip0_584_27268">
<rect width="25" height="25" fill="white" transform="translate(5 5)"/>
</clipPath>
</defs>
</svg>
