<svg width="46" height="42" viewBox="0 0 46 42" fill="none" xmlns="http://www.w3.org/2000/svg">
<path d="M17.9287 16.8897C16.749 16.5459 15.6224 16.2529 14.5488 16.0107C14.1064 14.6104 13.883 13.1502 13.8867 11.6816C13.8867 5.27441 18.0049 0.0800781 23.085 0.0800781C28.165 0.0800781 32.2793 5.26953 32.2793 11.6777C32.2823 13.0774 32.0796 14.4698 31.6777 15.8105C30.3418 16.0905 28.9186 16.4502 27.4082 16.8897C25.2598 17.5166 23.5225 18.1377 22.666 18.457C21.8145 18.1377 20.0772 17.5166 17.9287 16.8897ZM5.4336 25.1846C4.36816 25.1846 3.32666 25.5005 2.44079 26.0925C1.55493 26.6844 0.864503 27.5258 0.456823 28.5101C0.0491442 29.4945 -0.0574737 30.5776 0.150453 31.6225C0.35838 32.6675 0.871512 33.6273 1.62496 34.3806C2.3784 35.1339 3.33831 35.6469 4.3833 35.8546C5.42828 36.0624 6.5114 35.9555 7.49568 35.5477C8.47996 35.1398 9.32118 34.4493 9.91296 33.5633C10.5047 32.6773 10.8205 31.6357 10.8203 30.5703C10.8201 29.1418 10.2524 27.772 9.24224 26.762C8.23206 25.752 6.86207 25.1846 5.4336 25.1846ZM40.5693 25.1846C39.5039 25.1846 38.4624 25.5005 37.5765 26.0925C36.6907 26.6844 36.0002 27.5258 35.5926 28.5101C35.1849 29.4945 35.0783 30.5776 35.2862 31.6225C35.4941 32.6675 36.0073 33.6273 36.7607 34.3806C37.5141 35.1339 38.4741 35.6469 39.519 35.8546C40.564 36.0624 41.6471 35.9555 42.6314 35.5477C43.6157 35.1398 44.4569 34.4493 45.0487 33.5633C45.6405 32.6773 45.9562 31.6357 45.9561 30.5703C45.9558 29.142 45.3883 27.7723 44.3783 26.7623C43.3684 25.7523 41.9986 25.1848 40.5703 25.1846H40.5693ZM33.6211 30.5703C33.6226 29.2267 34.0131 27.9123 34.7455 26.7859C35.4778 25.6595 36.5207 24.7692 37.7481 24.2227V16.6494C31.4502 16.6494 22.666 20.1299 22.666 20.1299C22.666 20.1299 13.8818 16.6494 7.58399 16.6494V23.9658C8.97799 24.42 10.1926 25.3036 11.0539 26.4901C11.9151 27.6766 12.379 29.1052 12.379 30.5713C12.379 32.0374 11.9151 33.466 11.0539 34.6525C10.1926 35.839 8.97799 36.7225 7.58399 37.1768V37.8604C13.8818 37.8604 22.666 41.9209 22.666 41.9209C22.666 41.9209 31.4541 37.8633 37.7481 37.8633V36.918C36.5207 36.3714 35.4778 35.4811 34.7455 34.3547C34.0131 33.2283 33.6226 31.9139 33.6211 30.5703Z" fill="#F8F8F8"/>
</svg>
