<svg width="42" height="42" viewBox="0 0 42 42" fill="none" xmlns="http://www.w3.org/2000/svg">
<g clip-path="url(#clip0_561_25216)">
<path d="M37.3333 5.83331H4.66667C4.42751 5.83331 4.19184 5.85081 3.96201 5.88581L3.95734 7.93215L0.772338 7.92748C0.267343 8.69029 -0.00132072 9.58516 4.88182e-06 10.5V31.5C4.88182e-06 32.7377 0.49167 33.9246 1.36684 34.7998C2.24201 35.675 3.42899 36.1666 4.66667 36.1666H37.3333C38.571 36.1666 39.758 35.675 40.6332 34.7998C41.5083 33.9246 42 32.7377 42 31.5V10.5C42 9.2623 41.5083 8.07532 40.6332 7.20015C39.758 6.32498 38.571 5.83331 37.3333 5.83331V5.83331Z" fill="#00247D"/>
<path d="M34.0581 11.0833H32.5846L32.3583 10.4067L32.0818 9.58301L31.8053 10.4067L31.579 11.0833H30.1055L30.7296 11.6002L31.2803 12.0552L31.0481 12.74L30.7366 13.6523L31.502 13.0643L32.0818 12.6175L32.6616 13.0643L33.427 13.6523L33.1155 12.74L32.8833 12.0552L33.434 11.6002L34.0581 11.0833Z" fill="#EEEDED"/>
<path d="M32.0846 10.5L31.7918 11.375H30.918L31.6238 11.9595L31.3263 12.8333L32.0846 12.25L32.843 12.8333L32.5455 11.9595L33.2513 11.375H32.3775L32.0846 10.5Z" fill="#CF1B2B"/>
<path d="M34.0581 30.0417H32.5846L32.3583 29.365L32.0818 28.5413L31.8053 29.365L31.579 30.0417H30.1055L30.7296 30.5585L31.2803 31.0135L31.0481 31.6983L30.7366 32.6107L31.502 32.0227L32.0818 31.5758L32.6616 32.0227L33.427 32.6107L33.1155 31.6983L32.8833 31.0135L33.434 30.5585L34.0581 30.0417Z" fill="#EEEDED"/>
<path d="M32.0846 29.4583L31.7918 30.3333H30.918L31.6238 30.9178L31.3263 31.7916L32.0846 31.2083L32.843 31.7916L32.5455 30.9178L33.2513 30.3333H32.3775L32.0846 29.4583Z" fill="#CF1B2B"/>
<path d="M38.7261 15.75H37.2526L37.0263 15.0733L36.7498 14.2496L36.4733 15.0733L36.2469 15.75H34.7734L35.3976 16.2668L35.9483 16.7218L35.7161 17.4066L35.4046 18.319L36.1699 17.731L36.7498 17.2841L37.3296 17.731L38.0949 18.319L37.7834 17.4066L37.5513 16.7218L38.1019 16.2668L38.7261 15.75Z" fill="#EEEDED"/>
<path d="M36.7487 15.1667L36.4559 16.0417H35.582L36.2879 16.6262L35.9904 17.5L36.7487 16.9167L37.507 17.5L37.2095 16.6262L37.9154 16.0417H37.0415L36.7487 15.1667Z" fill="#CF1B2B"/>
<path d="M29.3941 18.0833H27.9206L27.6942 17.4067L27.4177 16.583L27.1412 17.4067L26.9149 18.0833H25.4414L26.0656 18.6002L26.6162 19.0552L26.3841 19.74L26.0726 20.6523L26.8379 20.0643L27.4177 19.6175L27.9976 20.0643L28.7629 20.6523L28.4514 19.74L28.2192 19.0552L28.7699 18.6002L29.3941 18.0833Z" fill="#EEEDED"/>
<path d="M27.4167 17.5L27.1238 18.375H26.25L26.9558 18.9595L26.6583 19.8333L27.4167 19.25L28.175 19.8333L27.8775 18.9595L28.5833 18.375H27.7095L27.4167 17.5Z" fill="#CF1B2B"/>
<path d="M22.1667 21V5.83331H4.66667C4.29334 5.83331 3.962 5.88581 3.962 5.88581L3.95734 7.93215L0.772336 7.92748C0.772336 7.92748 0.723337 7.99631 0.62417 8.16665C0.214335 8.87592 -0.000975852 9.68082 3.32491e-06 10.5V21H22.1667Z" fill="#00247D"/>
<path d="M22.1667 5.83331H19.4472L14 9.64715V5.83331H8.16666V8.83048L3.962 5.88581C3.26066 5.99058 2.59305 6.25611 2.01133 6.66165L7.497 10.5H5.47167L1.12817 7.45615C1.00007 7.60587 0.881243 7.76327 0.772333 7.92748L4.4485 10.5H0V16.3333H4.5325L0 19.5603V21H3.88733L8.16666 18.004V21H14V17.1861L19.446 21H22.1667V18.6328L18.8825 16.3333H22.1667V10.5H18.8837L22.1667 8.20048V5.83331Z" fill="#EEEEEE"/>
<path d="M12.8333 5.83331H9.33333V11.6666H0V15.1666H9.33333V21H12.8333V15.1666H22.1667V11.6666H12.8333V5.83331Z" fill="#CF1B2B"/>
<path d="M22.1658 5.83331H20.4613L13.9991 10.3588V10.5H15.832L22.1658 6.06431V5.83331ZM2.01047 6.66165C1.68384 6.88829 1.38711 7.15523 1.1273 7.45615L5.4708 10.5H7.49497L2.01047 6.66165V6.66165ZM7.50897 16.3333L0.855469 21H2.8703L8.1658 17.2923V16.3333H7.50897ZM22.1658 20.769V19.3456L17.8643 16.3333H15.8308L22.1658 20.769Z" fill="#CF1B2B"/>
</g>
<defs>
<clipPath id="clip0_561_25216">
<rect width="42" height="42" fill="white"/>
</clipPath>
</defs>
</svg>
