<svg width="38" height="38" viewBox="0 0 38 38" fill="none" xmlns="http://www.w3.org/2000/svg">
<path d="M21.1111 18.1556L26.3889 23.4333C26.7759 23.8204 26.9694 24.313 26.9694 24.9111C26.9694 25.5093 26.7759 26.0019 26.3889 26.3889C26.0019 26.7759 25.5093 26.9694 24.9111 26.9694C24.313 26.9694 23.8204 26.7759 23.4333 26.3889L17.5222 20.4778C17.3111 20.2667 17.1528 20.0288 17.0472 19.7642C16.9417 19.501 16.8889 19.2287 16.8889 18.9472V10.5556C16.8889 9.95741 17.0916 9.45567 17.4969 9.05033C17.9008 8.64641 18.4019 8.44444 19 8.44444C19.5981 8.44444 20.0999 8.64641 20.5052 9.05033C20.9091 9.45567 21.1111 9.95741 21.1111 10.5556V18.1556ZM19 38C14.7426 38 10.925 36.7418 7.54722 34.2253C4.16944 31.7103 1.9 28.4296 0.738889 24.3833C0.562963 23.75 0.624889 23.1519 0.924667 22.5889C1.22304 22.0259 1.68889 21.6741 2.32222 21.5333C2.92037 21.3926 3.4573 21.5242 3.933 21.9281C4.4073 22.3334 4.73241 22.8352 4.90833 23.4333C5.82315 26.5296 7.59156 29.0278 10.2136 30.9278C12.8341 32.8278 15.763 33.7778 19 33.7778C23.1167 33.7778 26.6084 32.3436 29.4753 29.4753C32.3436 26.6084 33.7778 23.1167 33.7778 19C33.7778 14.8833 32.3436 11.3909 29.4753 8.52256C26.6084 5.65567 23.1167 4.22222 19 4.22222C16.5722 4.22222 14.3028 4.78519 12.1917 5.91111C10.0806 7.03704 8.3037 8.58519 6.86111 10.5556H10.5556C11.1537 10.5556 11.6554 10.7575 12.0608 11.1614C12.4647 11.5668 12.6667 12.0685 12.6667 12.6667C12.6667 13.2648 12.4647 13.7659 12.0608 14.1698C11.6554 14.5751 11.1537 14.7778 10.5556 14.7778H2.11111C1.51296 14.7778 1.01193 14.5751 0.608 14.1698C0.202667 13.7659 0 13.2648 0 12.6667V4.22222C0 3.62407 0.202667 3.12233 0.608 2.717C1.01193 2.31307 1.51296 2.11111 2.11111 2.11111C2.70926 2.11111 3.211 2.31307 3.61633 2.717C4.02026 3.12233 4.22222 3.62407 4.22222 4.22222V7.07222C6.01667 4.82037 8.2073 3.0787 10.7941 1.84722C13.3795 0.615741 16.1148 0 19 0C21.6389 0 24.111 0.501037 26.4163 1.50311C28.7203 2.50659 30.7258 3.86122 32.433 5.567C34.1388 7.27419 35.4934 9.27974 36.4969 11.5837C37.499 13.889 38 16.3611 38 19C38 21.6389 37.499 24.1103 36.4969 26.4142C35.4934 28.7196 34.1388 30.7251 32.433 32.4309C30.7258 34.1381 28.7203 35.4934 26.4163 36.4969C24.111 37.499 21.6389 38 19 38Z" fill="#1A58D3"/>
</svg>
