<svg width="102" height="102" viewBox="0 0 102 102" fill="none" xmlns="http://www.w3.org/2000/svg">
<g opacity="0.05" clip-path="url(#clip0_4233_20399)">
<path d="M59.5 34H19.8333C19.0819 34 18.3612 33.7015 17.8299 33.1701C17.2985 32.6388 17 31.9181 17 31.1667V19.8333C17 19.0819 17.2985 18.3612 17.8299 17.8299C18.3612 17.2985 19.0819 17 19.8333 17H59.5C60.2514 17 60.9721 17.2985 61.5035 17.8299C62.0348 18.3612 62.3333 19.0819 62.3333 19.8333V31.1667C62.3333 31.9181 62.0348 32.6388 61.5035 33.1701C60.9721 33.7015 60.2514 34 59.5 34ZM22.6667 28.3333H56.6667V22.4967H22.6667V28.3333Z" fill="black"/>
<path d="M59.5 39.8945H19.8333C19.0819 39.8945 18.3612 40.193 17.8299 40.7244C17.2985 41.2557 17 41.9764 17 42.7279V53.8345C17 54.586 17.2985 55.3066 17.8299 55.838C18.3612 56.3694 19.0819 56.6679 19.8333 56.6679H52.02L62.3333 46.1845V42.7279C62.3333 41.9764 62.0348 41.2557 61.5035 40.7244C60.9721 40.193 60.2514 39.8945 59.5 39.8945ZM56.6667 51.0012H22.6667V45.3345H56.6667V51.0012Z" fill="black"/>
<path d="M31.336 89.2796V89.1096L32.2427 85.1713H11.3327V11.3346H67.9993V40.3763L73.666 35.0213V8.5013C73.666 7.74986 73.3675 7.02919 72.8361 6.49783C72.3048 5.96648 71.5841 5.66797 70.8327 5.66797H8.49935C7.7479 5.66797 7.02723 5.96648 6.49588 6.49783C5.96453 7.02919 5.66602 7.74986 5.66602 8.5013V87.8346C5.66602 88.5861 5.96453 89.3068 6.49588 89.8381C7.02723 90.3695 7.7479 90.668 8.49935 90.668H31.166C31.1894 90.2017 31.2462 89.7377 31.336 89.2796Z" fill="black"/>
<path d="M62.333 54.3164L60.123 56.5547C60.6713 56.4417 61.1739 56.1688 61.5672 55.7704C61.9605 55.3721 62.227 54.8661 62.333 54.3164Z" fill="black"/>
<path d="M17 76.3287C17 77.0801 17.2985 77.8008 17.8299 78.3322C18.3612 78.8635 19.0819 79.162 19.8333 79.162H33.5467L34.3967 75.4787L34.765 73.9204V73.7787H22.6667V67.9987H40.63L46.2967 62.332H19.8333C19.0819 62.332 18.3612 62.6305 17.8299 63.1619C17.2985 63.6932 17 64.4139 17 65.1654V76.3287Z" fill="black"/>
<path d="M94.8891 47.2326L85.3408 37.6843C84.9171 37.2593 84.4136 36.9222 83.8594 36.6922C83.3051 36.4622 82.7109 36.3438 82.1108 36.3438C81.5107 36.3438 80.9165 36.4622 80.3622 36.6922C79.808 36.9222 79.3046 37.2593 78.8808 37.6843L40.0358 76.7559L36.8341 90.3842C36.7143 90.9722 36.7116 91.578 36.8262 92.167C36.9408 92.756 37.1705 93.3166 37.5022 93.8166C37.8338 94.3167 38.2608 94.7464 38.7588 95.0812C39.2568 95.416 39.8159 95.6492 40.4041 95.7676C40.6962 95.7969 40.9904 95.7969 41.2825 95.7676C41.6296 95.8242 41.9836 95.8242 42.3308 95.7676L56.0725 92.7359L94.8891 53.8343C95.3132 53.4129 95.6497 52.9119 95.8794 52.36C96.109 51.8081 96.2272 51.2162 96.2272 50.6184C96.2272 50.0206 96.109 49.4288 95.8794 48.8769C95.6497 48.325 95.3132 47.8239 94.8891 47.4026V47.2326ZM53.1825 87.5792L42.8125 89.8742L45.3341 79.5892L74.4608 50.1509L82.4508 58.1409L53.1825 87.5792ZM85.6525 54.9392L77.6625 46.9493L82.1675 42.5009L90.2141 50.5476L85.6525 54.9392Z" fill="black"/>
</g>
<defs>
<clipPath id="clip0_4233_20399">
<rect width="102" height="102" fill="white"/>
</clipPath>
</defs>
</svg>
