<svg width="22" height="22" viewBox="0 0 22 22" fill="none" xmlns="http://www.w3.org/2000/svg">
<path d="M16.0574 11.5092C16.0488 10.0439 16.7127 8.93965 18.0533 8.12539C17.3035 7.05117 16.1691 6.46035 14.6738 6.34648C13.258 6.23477 11.709 7.17148 11.1418 7.17148C10.5424 7.17148 9.17168 6.38516 8.09316 6.38516C5.86738 6.41953 3.50195 8.15977 3.50195 11.7004C3.50195 12.7467 3.69316 13.8273 4.07559 14.9402C4.58691 16.4055 6.43027 19.9955 8.35312 19.9375C9.35859 19.9139 10.0697 19.2242 11.3781 19.2242C12.6479 19.2242 13.3053 19.9375 14.4268 19.9375C16.3668 19.9096 18.034 16.6461 18.5195 15.1766C15.9178 13.9498 16.0574 11.5844 16.0574 11.5092ZM15.8297 17.2455C15.5225 17.673 15.2131 18.0104 14.9295 18.2273C14.7039 18.3992 14.5299 18.4723 14.4139 18.4766C14.2205 18.4744 14.0336 18.4272 13.6684 18.2875C13.6426 18.2768 13.6146 18.266 13.5781 18.2531L13.4836 18.2166C13.1098 18.0727 12.8863 17.9953 12.6006 17.9201C12.201 17.817 11.8035 17.7611 11.3781 17.7611C10.9441 17.7611 10.5359 17.8148 10.1299 17.9158C9.83125 17.991 9.57988 18.0748 9.2125 18.2123C9.19746 18.2188 9.03848 18.2789 8.99336 18.2961C8.91816 18.324 8.86016 18.3455 8.80645 18.3648C8.58301 18.4422 8.44121 18.4744 8.31445 18.4766C8.29941 18.4766 8.28652 18.4744 8.27578 18.4723C8.25215 18.468 8.22207 18.4594 8.1877 18.4443C8.09102 18.4057 7.975 18.3348 7.84395 18.2338C7.54316 17.9996 7.2123 17.6322 6.875 17.1617C6.28418 16.3324 5.72559 15.2324 5.45703 14.4611C5.12617 13.4986 4.96289 12.577 4.96289 11.6982C4.96289 10.4049 5.34531 9.4209 6.00273 8.75273C6.56777 8.18125 7.32832 7.86113 8.10391 7.84395C8.23066 7.84609 8.41543 7.87617 8.64961 7.94063C8.83437 7.99004 9.03633 8.05664 9.30918 8.15332C9.39082 8.1834 9.67227 8.28438 9.70664 8.29727C9.87207 8.35742 9.99668 8.40039 10.1191 8.43906C10.5102 8.56367 10.8131 8.63242 11.1418 8.63242C11.4748 8.63242 11.7605 8.56152 12.1666 8.42188C12.3191 8.37031 12.8734 8.16406 12.9723 8.12969C13.5223 7.93418 13.9283 7.82891 14.2785 7.80313C14.3816 7.79453 14.474 7.79453 14.5621 7.80098C15.0498 7.83965 15.4666 7.93633 15.8211 8.09746C15.0133 9.02988 14.5965 10.1707 14.5986 11.5006C14.5922 11.8164 14.618 12.1816 14.7082 12.6135C14.8457 13.2688 15.1078 13.9176 15.5225 14.5256C15.8383 14.9875 16.2293 15.4043 16.6977 15.7674C16.4506 16.2766 16.1477 16.8029 15.8297 17.2455ZM13.7994 4.95645C14.8887 3.66309 14.7898 2.48574 14.7576 2.0625C13.7951 2.11836 12.6822 2.71777 12.0484 3.45469C11.3502 4.24531 10.9398 5.22285 11.0279 6.325C12.0678 6.40449 13.0174 5.86953 13.7994 4.95645Z" fill="#555555"/>
</svg>
