<svg width="22" height="22" viewBox="0 0 22 22" fill="none" xmlns="http://www.w3.org/2000/svg">
<path d="M11.135 21.295C17.0085 21.295 21.77 16.5336 21.77 10.66C21.77 4.78648 17.0085 0.0250244 11.135 0.0250244C5.26145 0.0250244 0.5 4.78648 0.5 10.66C0.5 16.5336 5.26145 21.295 11.135 21.295Z" fill="#6DA544"/>
<path d="M6.50977 12.7408C6.50977 13.5069 7.13083 14.128 7.89693 14.128H12.0585C12.0585 14.7664 12.576 15.284 13.2144 15.284H14.6016C15.24 15.284 15.7576 14.7664 15.7576 14.128V12.7408H6.50977Z" fill="#F0F0F0"/>
<path d="M15.874 6.03613V9.27287C15.874 9.78281 15.4592 10.1977 14.9492 10.1977V11.5848C16.224 11.5848 17.2612 10.5477 17.2612 9.27287V6.03613H15.874Z" fill="#F0F0F0"/>
<path d="M5.9326 9.27287C5.9326 9.78281 5.51775 10.1977 5.00781 10.1977V11.5848C6.28264 11.5848 7.31976 10.5477 7.31976 9.27287V6.03613H5.9326V9.27287Z" fill="#F0F0F0"/>
<path d="M13.793 6.03613H15.1801V9.27287H13.793V6.03613Z" fill="#F0F0F0"/>
<path d="M11.7128 7.88571C11.7128 8.0132 11.609 8.11689 11.4816 8.11689C11.3541 8.11689 11.2504 8.01316 11.2504 7.88571V6.03613H9.86325V7.88571C9.86325 8.0132 9.75952 8.11689 9.63206 8.11689C9.50461 8.11689 9.40087 8.01316 9.40087 7.88571V6.03613H8.01367V7.88571C8.01367 8.77809 8.73968 9.5041 9.63206 9.5041C9.97575 9.5041 10.2945 9.39609 10.5568 9.21263C10.8192 9.39604 11.138 9.5041 11.4816 9.5041C11.5508 9.5041 11.6189 9.49924 11.6858 9.49072C11.5875 9.89572 11.2228 10.1977 10.788 10.1977V11.5848C12.0629 11.5848 13.1 10.5477 13.1 9.27287V7.88571V6.03613H11.7128V7.88571H11.7128Z" fill="#F0F0F0"/>
<path d="M8.01367 10.1978H10.0944V11.5849H8.01367V10.1978Z" fill="#F0F0F0"/>
</svg>
