<svg width="50" height="50" viewBox="0 0 50 50" fill="none" xmlns="http://www.w3.org/2000/svg">
<path d="M15.791 8.50016L12.8118 5.521C7.81185 9.3335 4.52018 15.2085 4.22852 21.8752H8.39518C8.54276 19.2331 9.28441 16.6584 10.5649 14.3426C11.8454 12.0269 13.6318 10.0299 15.791 8.50016ZM41.6035 21.8752H45.7702C45.4577 15.2085 42.166 9.3335 37.1868 5.521L34.2285 8.50016C36.3785 10.0374 38.1569 12.0366 39.4331 14.3511C40.7093 16.6656 41.4509 19.2366 41.6035 21.8752ZM37.4993 22.9168C37.4993 16.521 34.0827 11.1668 28.1243 9.75016V5.2085H21.8743V9.75016C15.8952 11.1668 12.4993 16.5002 12.4993 22.9168V33.3335L8.33268 37.5002V39.5835H41.666V37.5002L37.4993 33.3335V22.9168ZM24.9993 45.8335C25.291 45.8335 25.5618 45.8127 25.8327 45.7502C27.1868 45.4585 28.291 44.5418 28.8327 43.2918C29.041 42.7918 29.1452 42.2502 29.1452 41.6668H20.8118C20.8327 43.9585 22.6868 45.8335 24.9993 45.8335Z" fill="#F8F8F8"/>
</svg>
