<svg width="22" height="22" viewBox="0 0 22 22" fill="none" xmlns="http://www.w3.org/2000/svg">
<path d="M11.135 21.3249C17.0085 21.3249 21.77 16.5635 21.77 10.6899C21.77 4.81638 17.0085 0.0549316 11.135 0.0549316C5.26145 0.0549316 0.5 4.81638 0.5 10.6899C0.5 16.5635 5.26145 21.3249 11.135 21.3249Z" fill="#D80027"/>
<path d="M6.32006 6.52722L7.23816 9.35214H10.2085L7.8073 11.1011L8.7254 13.926L6.32006 12.1812L3.91472 13.926L4.83698 11.1011L2.43164 9.35214H5.40196L6.32006 6.52722Z" fill="#FFDA44"/>
<path d="M13.1079 16.5267L12.4059 15.6626L11.3673 16.0655L11.9697 15.1308L11.2676 14.2626L12.3435 14.5492L12.9501 13.6145L13.0082 14.7279L14.0883 15.0145L13.0456 15.4133L13.1079 16.5267Z" fill="#FFDA44"/>
<path d="M14.5032 13.9925L14.8356 12.929L13.9258 12.2851L15.0391 12.2685L15.3673 11.205L15.7287 12.2601L16.8421 12.2477L15.9489 12.9124L16.3062 13.9676L15.3964 13.3236L14.5032 13.9925Z" fill="#FFDA44"/>
<path d="M16.3865 7.86072L15.8963 8.8619L16.6939 9.63875L15.593 9.48089L15.1028 10.4779L14.9117 9.38119L13.8066 9.22333L14.7954 8.70404L14.6043 7.60315L15.4019 8.38L16.3865 7.86072Z" fill="#FFDA44"/>
<path d="M13.1378 4.82812L13.0547 5.93732L14.0891 6.35691L13.0048 6.62278L12.9259 7.73613L12.3401 6.78895L11.2559 7.05483L11.9746 6.2032L11.3846 5.26017L12.4191 5.67976L13.1378 4.82812Z" fill="#FFDA44"/>
</svg>
