<svg width="34" height="34" viewBox="0 0 34 34" fill="none" xmlns="http://www.w3.org/2000/svg">
<rect width="34" height="34" rx="17" fill="black" fill-opacity="0.2"/>
<path d="M14.22 17.7179C14.0793 17.5774 14.0002 17.3867 14 17.1879V16.8079C14.0023 16.6095 14.0811 16.4196 14.22 16.2779L19.36 11.1479C19.4539 11.0532 19.5817 11 19.715 11C19.8483 11 19.9761 11.0532 20.07 11.1479L20.78 11.8579C20.8741 11.9501 20.9271 12.0762 20.9271 12.2079C20.9271 12.3396 20.8741 12.4657 20.78 12.5579L16.33 16.9979L20.78 21.4379C20.8747 21.5318 20.9279 21.6596 20.9279 21.7929C20.9279 21.9262 20.8747 22.054 20.78 22.1479L20.07 22.8479C19.9761 22.9426 19.8483 22.9958 19.715 22.9958C19.5817 22.9958 19.4539 22.9426 19.36 22.8479L14.22 17.7179Z" fill="black"/>
</svg>
