<svg width="34" height="34" viewBox="0 0 34 34" fill="none" xmlns="http://www.w3.org/2000/svg">
<rect width="34" height="34" rx="17" fill="black" fill-opacity="0.2"/>
<path d="M20.78 17.7179C20.9207 17.5774 20.9998 17.3867 21 17.1879V16.8079C20.9977 16.6095 20.9189 16.4196 20.78 16.2779L15.64 11.1479C15.5461 11.0532 15.4183 11 15.285 11C15.1517 11 15.0239 11.0532 14.93 11.1479L14.22 11.8579C14.1259 11.9501 14.0729 12.0762 14.0729 12.2079C14.0729 12.3396 14.1259 12.4657 14.22 12.5579L18.67 16.9979L14.22 21.4379C14.1253 21.5318 14.0721 21.6596 14.0721 21.7929C14.0721 21.9262 14.1253 22.054 14.22 22.1479L14.93 22.8479C15.0239 22.9426 15.1517 22.9958 15.285 22.9958C15.4183 22.9958 15.5461 22.9426 15.64 22.8479L20.78 17.7179Z" fill="black"/>
</svg>
