<svg width="35" height="35" viewBox="0 0 35 35" fill="none" xmlns="http://www.w3.org/2000/svg">
<circle cx="17.5" cy="17.5" r="17.5" fill="#4C76E2"/>
<g clip-path="url(#clip0_454_8301)">
<path d="M17.5007 7.08331C23.2538 7.08331 27.9173 11.7469 27.9173 17.5C27.9173 23.2531 23.2538 27.9166 17.5007 27.9166C11.7475 27.9166 7.08398 23.2531 7.08398 17.5C7.08398 11.7469 11.7475 7.08331 17.5007 7.08331ZM15.2913 13.8166C15.1043 13.6278 14.8521 13.5177 14.5865 13.5086C14.3209 13.4996 14.0619 13.5925 13.8625 13.7682C13.6632 13.9439 13.5385 14.1891 13.514 14.4538C13.4895 14.7184 13.5671 14.9824 13.7309 15.1916L13.8184 15.2906L16.0267 17.4989L13.8184 19.7094C13.6296 19.8964 13.5194 20.1485 13.5104 20.4141C13.5013 20.6797 13.5942 20.9387 13.7699 21.1381C13.9456 21.3375 14.1908 21.4622 14.4555 21.4867C14.7201 21.5111 14.9841 21.4335 15.1934 21.2698L15.2913 21.1833L17.5007 18.9729L19.71 21.1833C19.897 21.3721 20.1492 21.4823 20.4148 21.4913C20.6804 21.5003 20.9394 21.4075 21.1388 21.2318C21.3381 21.0561 21.4628 20.8108 21.4873 20.5462C21.5118 20.2816 21.4342 20.0176 21.2704 19.8083L21.184 19.7094L18.9736 17.5L21.184 15.2906C21.3728 15.1036 21.483 14.8515 21.492 14.5859C21.501 14.3203 21.4082 14.0613 21.2325 13.8619C21.0568 13.6625 20.8115 13.5378 20.5469 13.5133C20.2823 13.4888 20.0183 13.5664 19.809 13.7302L19.71 13.8166L17.5007 16.0271L15.2913 13.8166Z" fill="#F8F8F8"/>
</g>
<defs>
<clipPath id="clip0_454_8301">
<rect width="25" height="25" fill="white" transform="translate(5 5)"/>
</clipPath>
</defs>
</svg>
