<svg width="60" height="60" viewBox="0 0 60 60" fill="none" xmlns="http://www.w3.org/2000/svg">
<path d="M10 52.5C8.625 52.5 7.44833 52.0108 6.47 51.0325C5.49 50.0525 5 48.875 5 47.5V12.5C5 11.125 5.49 9.9475 6.47 8.9675C7.44833 7.98917 8.625 7.5 10 7.5H50C51.375 7.5 52.5525 7.98917 53.5325 8.9675C54.5108 9.9475 55 11.125 55 12.5V47.5C55 48.875 54.5108 50.0525 53.5325 51.0325C52.5525 52.0108 51.375 52.5 50 52.5H10ZM12.5 42.5H25V37.5H12.5V42.5ZM36.375 37.5L48.75 25.125L45.1875 21.5625L36.375 30.4375L32.8125 26.875L29.3125 30.4375L36.375 37.5ZM12.5 32.5H25V27.5H12.5V32.5ZM12.5 22.5H25V17.5H12.5V22.5Z" fill="#69BE28"/>
</svg>
