<svg width="22" height="22" viewBox="0 0 22 22" fill="none" xmlns="http://www.w3.org/2000/svg">
<path d="M20.2813 11C20.2813 9.16435 19.7369 7.36991 18.7171 5.84362C17.6972 4.31732 16.2477 3.12772 14.5518 2.42525C12.8559 1.72277 10.9897 1.53897 9.18932 1.89709C7.38894 2.25521 5.73518 3.13916 4.43717 4.43717C3.13916 5.73518 2.25521 7.38894 1.89709 9.18932C1.53897 10.9897 1.72277 12.8559 2.42525 14.5518C3.12772 16.2477 4.31732 17.6972 5.84362 18.7171C7.36991 19.7369 9.16435 20.2813 11 20.2813C13.4608 20.279 15.8202 19.3004 17.5603 17.5603C19.3004 15.8202 20.279 13.4608 20.2813 11ZM12.0313 18.1414V13.4063H13.75C14.0235 13.4063 14.2858 13.2976 14.4792 13.1042C14.6726 12.9108 14.7813 12.6485 14.7813 12.375C14.7813 12.1015 14.6726 11.8392 14.4792 11.6458C14.2858 11.4524 14.0235 11.3438 13.75 11.3438H12.0313V9.625C12.0313 9.3515 12.1399 9.0892 12.3333 8.8958C12.5267 8.7024 12.789 8.59375 13.0625 8.59375H14.4375C14.711 8.59375 14.9733 8.48511 15.1667 8.29171C15.3601 8.09831 15.4688 7.83601 15.4688 7.5625C15.4688 7.289 15.3601 7.0267 15.1667 6.8333C14.9733 6.6399 14.711 6.53125 14.4375 6.53125H13.0625C12.242 6.53125 11.4551 6.8572 10.8749 7.43739C10.2947 8.01758 9.96875 8.80449 9.96875 9.625V11.3438H8.25C7.9765 11.3438 7.7142 11.4524 7.5208 11.6458C7.3274 11.8392 7.21875 12.1015 7.21875 12.375C7.21875 12.6485 7.3274 12.9108 7.5208 13.1042C7.7142 13.2976 7.9765 13.4063 8.25 13.4063H9.96875V18.1414C8.16243 17.8807 6.5219 16.9455 5.37732 15.5239C4.23275 14.1024 3.66909 12.3001 3.79979 10.4797C3.93048 8.65939 4.74583 6.9561 6.08174 5.71266C7.41765 4.46923 9.17496 3.77795 11 3.77795C12.825 3.77795 14.5824 4.46923 15.9183 5.71266C17.2542 6.9561 18.0695 8.65939 18.2002 10.4797C18.3309 12.3001 17.7673 14.1024 16.6227 15.5239C15.4781 16.9455 13.8376 17.8807 12.0313 18.1414Z" fill="#426FCD"/>
</svg>
