<svg width="22" height="22" viewBox="0 0 22 22" fill="none" xmlns="http://www.w3.org/2000/svg">
<path d="M1.16211 15.029C2.66476 19.0788 6.56294 21.9649 11.1356 21.9649C15.7083 21.9649 19.6065 19.0788 21.1091 15.029L11.1356 14.1042L1.16211 15.029Z" fill="#FFDA44"/>
<path d="M11.1356 0.694946C6.56294 0.694946 2.66476 3.58102 1.16211 7.63084L11.1356 8.55558L21.1091 7.63079C19.6065 3.58102 15.7083 0.694946 11.1356 0.694946Z" fill="black"/>
<path d="M1.16149 7.63086C0.734012 8.78297 0.5 10.0291 0.5 11.33C0.5 12.6308 0.734012 13.877 1.16149 15.0291H21.1086C21.536 13.877 21.77 12.6308 21.77 11.33C21.77 10.0291 21.536 8.78297 21.1085 7.63086H1.16149Z" fill="#D80027"/>
</svg>
