<svg width="12" height="14" viewBox="0 0 12 14" fill="none" xmlns="http://www.w3.org/2000/svg">
<g clip-path="url(#clip0_1865_610)">
<path d="M11.9937 7.12155C11.9937 6.58895 11.9529 6.20029 11.8645 5.79724H6.11914V8.20115H9.49154C9.42357 8.79855 9.05641 9.69823 8.24049 10.3028L8.22905 10.3833L10.0456 11.873L10.1715 11.8863C11.3273 10.7562 11.9937 9.09363 11.9937 7.12155Z" fill="#4285F4"/>
<path d="M6.11895 13.4553C7.77114 13.4553 9.15817 12.8795 10.1713 11.8863L8.2403 10.3028C7.72357 10.6843 7.03003 10.9506 6.11895 10.9506C4.50074 10.9506 3.1273 9.82062 2.63771 8.25879L2.56595 8.26524L0.677046 9.81269L0.652344 9.88538C1.65862 12.0014 3.7256 13.4553 6.11895 13.4553Z" fill="#34A853"/>
<path d="M2.63808 8.25876C2.5089 7.85572 2.43413 7.42384 2.43413 6.97762C2.43413 6.53135 2.5089 6.09952 2.63128 5.69648L2.62786 5.61064L0.715287 4.03833L0.652711 4.06984C0.237976 4.94793 0 5.934 0 6.97762C0 8.02124 0.237976 9.00726 0.652711 9.88535L2.63808 8.25876Z" fill="#FBBC05"/>
<path d="M6.11895 3.00468C7.268 3.00468 8.0431 3.53009 8.48507 3.96916L10.2121 2.18419C9.15142 1.14057 7.77114 0.5 6.11895 0.5C3.7256 0.5 1.65862 1.95387 0.652344 4.06989L2.63092 5.69653C3.1273 4.13469 4.50074 3.00468 6.11895 3.00468Z" fill="#EB4335"/>
</g>
<defs>
<clipPath id="clip0_1865_610">
<rect width="12" height="13" fill="white" transform="translate(0 0.5)"/>
</clipPath>
</defs>
</svg>
