<svg width="19" height="19" viewBox="0 0 19 19" fill="none" xmlns="http://www.w3.org/2000/svg">
<path d="M9.21049 11.6038C9.73263 11.6038 10.2334 11.3964 10.6026 11.0272C10.9718 10.658 11.1792 10.1572 11.1792 9.63506C11.1792 9.57741 11.1766 9.52028 11.1717 9.46385L9.03928 11.5963C9.0957 11.6012 9.15266 11.6038 9.21049 11.6038ZM15.7271 3.5453L14.9761 2.79506C14.9497 2.76871 14.914 2.75391 14.8767 2.75391C14.8394 2.75391 14.8037 2.76871 14.7773 2.79506L12.8557 4.71723C11.7956 4.17547 10.604 3.90459 9.2808 3.90459C5.90229 3.90459 3.38158 5.66416 1.71869 9.1833C1.65185 9.32484 1.61719 9.47942 1.61719 9.63594C1.61719 9.79246 1.65185 9.94704 1.71869 10.0886C2.38315 11.4881 3.18324 12.6099 4.11899 13.4539L2.2594 15.3128C2.23304 15.3392 2.21824 15.3749 2.21824 15.4122C2.21824 15.4495 2.23304 15.4852 2.2594 15.5116L3.00981 16.262C3.03618 16.2884 3.07193 16.3032 3.10921 16.3032C3.14649 16.3032 3.18225 16.2884 3.20861 16.262L15.7271 3.74428C15.7401 3.73122 15.7505 3.71571 15.7576 3.69864C15.7647 3.68157 15.7683 3.66327 15.7683 3.64479C15.7683 3.62631 15.7647 3.60801 15.7576 3.59094C15.7505 3.57387 15.7401 3.55836 15.7271 3.5453ZM6.11674 9.63506C6.11669 9.1007 6.25505 8.57543 6.51834 8.11043C6.78163 7.64543 7.16088 7.25656 7.61913 6.98169C8.07738 6.70683 8.59901 6.55534 9.13321 6.542C9.66741 6.52865 10.196 6.65389 10.6674 6.90553L9.81272 7.76018C9.46804 7.64982 9.09963 7.63652 8.7479 7.72176C8.39618 7.807 8.07472 7.98748 7.81881 8.24338C7.5629 8.49929 7.38243 8.82075 7.29719 9.17248C7.21195 9.52421 7.22524 9.89262 7.33561 10.2373L6.48096 11.0919C6.24112 10.6438 6.11599 10.1433 6.11674 9.63506Z" fill="black"/>
<path d="M16.844 9.18145C16.2253 7.87832 15.4888 6.81572 14.6346 5.99365L12.1009 8.52754C12.3145 9.08585 12.3618 9.69405 12.2372 10.2787C12.1126 10.8633 11.8214 11.3994 11.3987 11.822C10.976 12.2447 10.44 12.536 9.85533 12.6606C9.27069 12.7852 8.66249 12.7379 8.10418 12.5243L5.95508 14.6734C6.95211 15.1347 8.06105 15.3654 9.28191 15.3654C12.6604 15.3654 15.1811 13.6059 16.844 10.0867C16.9109 9.94519 16.9455 9.79061 16.9455 9.63408C16.9455 9.47756 16.9109 9.32298 16.844 9.18145Z" fill="black"/>
</svg>
