<svg width="22" height="22" viewBox="0 0 22 22" fill="none" xmlns="http://www.w3.org/2000/svg">
<path d="M11.135 21.315C17.0085 21.315 21.77 16.5536 21.77 10.68C21.77 4.8065 17.0085 0.0450439 11.135 0.0450439C5.26145 0.0450439 0.5 4.8065 0.5 10.68C0.5 16.5536 5.26145 21.315 11.135 21.315Z" fill="#F0F0F0"/>
<path d="M14.8338 10.6801C14.8338 11.6049 13.1776 13.9168 11.1347 13.9168C9.0917 13.9168 7.43555 11.6049 7.43555 10.6801C7.43555 8.63707 9.0917 6.98096 11.1347 6.98096C13.1776 6.98096 14.8338 8.63707 14.8338 10.6801Z" fill="#D80027"/>
<path d="M14.8338 10.6801C14.8338 12.7231 13.1776 14.3792 11.1347 14.3792C9.0917 14.3792 7.43555 12.7231 7.43555 10.6801" fill="#0052B4"/>
<path d="M15.0547 13.9498L16.0354 12.9691L16.6892 13.6229L15.7085 14.6037L15.0547 13.9498Z" fill="black"/>
<path d="M13.4199 15.5844L14.4006 14.6036L15.0545 15.2575L14.0737 16.2382L13.4199 15.5844Z" fill="black"/>
<path d="M17.0176 15.9111L17.9983 14.9304L18.6521 15.5842L17.6714 16.565L17.0176 15.9111Z" fill="black"/>
<path d="M15.3828 17.546L16.3635 16.5653L17.0174 17.2191L16.0366 18.1998L15.3828 17.546Z" fill="black"/>
<path d="M16.0371 14.9305L17.0178 13.9498L17.6717 14.6036L16.6909 15.5844L16.0371 14.9305Z" fill="black"/>
<path d="M14.4023 16.5652L15.3831 15.5845L16.0369 16.2383L15.0562 17.219L14.4023 16.5652Z" fill="black"/>
<path d="M17.0215 7.41211L14.4062 4.79684L15.06 4.14301L17.6753 6.75828L17.0215 7.41211Z" fill="black"/>
<path d="M14.4062 6.75854L13.4255 5.77782L14.0793 5.12403L15.06 6.10475L14.4062 6.75854Z" fill="black"/>
<path d="M16.041 8.39343L15.0603 7.41271L15.7141 6.75891L16.6948 7.73964L16.041 8.39343Z" fill="black"/>
<path d="M16.3672 4.79675L15.3865 3.81603L16.0403 3.1622L17.021 4.14293L16.3672 4.79675Z" fill="black"/>
<path d="M18.002 6.43188L17.0212 5.45116L17.6751 4.79734L18.6558 5.77806L18.002 6.43188Z" fill="black"/>
<path d="M4.26953 14.9287L6.8848 17.544L6.23098 18.1978L3.61571 15.5825L4.26953 14.9287Z" fill="black"/>
<path d="M6.88477 15.582L7.86549 16.5628L7.21169 17.2165L6.23097 16.2358L6.88477 15.582Z" fill="black"/>
<path d="M5.25 13.9478L6.23072 14.9285L5.5769 15.5823L4.59618 14.6016L5.25 13.9478Z" fill="black"/>
<path d="M6.23242 12.9668L8.84769 15.5821L8.19387 16.2359L5.5786 13.6206L6.23242 12.9668Z" fill="black"/>
<path d="M6.88477 3.81396L4.26949 6.42924L3.61567 5.77541L6.23094 3.16014L6.88477 3.81396Z" fill="black"/>
<path d="M7.86523 4.79456L5.24996 7.40983L4.59614 6.756L7.21141 4.14073L7.86523 4.79456Z" fill="black"/>
<path d="M8.84766 5.77588L6.23239 8.39115L5.57859 7.73735L8.19386 5.12208L8.84766 5.77588Z" fill="black"/>
</svg>
