<svg width="70" height="70" viewBox="0 0 70 70" fill="none" xmlns="http://www.w3.org/2000/svg">
<path d="M35 70C30.2764 70 25.6895 69.0771 21.376 67.252C17.2061 65.4883 13.4668 62.959 10.2539 59.7461C7.04102 56.5332 4.51172 52.7939 2.74805 48.624C0.922852 44.3105 0 39.7236 0 35C0 33.6396 1.10059 32.5391 2.46094 32.5391C3.82129 32.5391 4.92188 33.6396 4.92188 35C4.92188 39.0605 5.71484 42.998 7.28711 46.71C8.80469 50.292 10.9717 53.5117 13.7334 56.2734C16.4951 59.0352 19.7148 61.209 23.2969 62.7197C27.002 64.2852 30.9395 65.0781 35 65.0781C39.0605 65.0781 42.998 64.2852 46.71 62.7129C50.292 61.1953 53.5117 59.0283 56.2734 56.2666C59.0352 53.5049 61.209 50.2852 62.7197 46.7031C64.2852 42.998 65.0781 39.0605 65.0781 35C65.0781 30.9395 64.2852 27.002 62.7129 23.29C61.2005 19.7166 59.0115 16.4692 56.2666 13.7266C53.527 10.9779 50.2788 8.78852 46.7031 7.28027C42.998 5.71484 39.0605 4.92188 35 4.92188C33.6396 4.92188 32.5391 3.82129 32.5391 2.46094C32.5391 1.10059 33.6396 0 35 0C39.7236 0 44.3105 0.922852 48.624 2.74805C52.7939 4.51172 56.5332 7.04102 59.7461 10.2539C62.959 13.4668 65.4814 17.2129 67.2451 21.376C69.0703 25.6895 69.9932 30.2764 69.9932 35C69.9932 39.7236 69.0703 44.3105 67.2451 48.624C65.4883 52.7939 62.959 56.5332 59.7461 59.7461C56.5332 62.959 52.7871 65.4814 48.624 67.2451C44.3105 69.0771 39.7236 70 35 70V70Z" fill="black"/>
</svg>
