<svg width="27" height="28" viewBox="0 0 27 28" fill="none" xmlns="http://www.w3.org/2000/svg">
<path d="M13.5 27.0555C11.655 27.0555 9.91125 26.7009 8.26875 25.9917C6.62625 25.2834 5.1921 24.3159 3.9663 23.0892C2.7396 21.8634 1.7721 20.4292 1.0638 18.7867C0.3546 17.1442 0 15.4005 0 13.5555C0 11.688 0.3546 9.93883 1.0638 8.30803C1.7721 6.67633 2.7396 5.24758 3.9663 4.02178C5.1921 2.79508 6.62625 1.82713 8.26875 1.11793C9.91125 0.409631 11.655 0.055481 13.5 0.055481C15.3675 0.055481 17.1166 0.409631 18.7474 1.11793C20.3792 1.82713 21.8079 2.79508 23.0337 4.02178C24.2604 5.24758 25.2279 6.67633 25.9362 8.30803C26.6454 9.93883 27 11.688 27 13.5555C27 15.4005 26.6454 17.1442 25.9362 18.7867C25.2279 20.4292 24.2604 21.8634 23.0337 23.0892C21.8079 24.3159 20.3792 25.2834 18.7474 25.9917C17.1166 26.7009 15.3675 27.0555 13.5 27.0555ZM13.5 24.288C14.085 23.478 14.5913 22.6342 15.0188 21.7567C15.4462 20.8792 15.795 19.9455 16.065 18.9555H10.935C11.205 19.9455 11.5538 20.8792 11.9812 21.7567C12.4088 22.6342 12.915 23.478 13.5 24.288ZM9.99 23.748C9.585 23.0055 9.23085 22.2346 8.92755 21.4354C8.62335 20.6371 8.37 19.8105 8.1675 18.9555H4.185C4.8375 20.0805 5.6529 21.0592 6.6312 21.8917C7.6104 22.7242 8.73 23.343 9.99 23.748ZM17.01 23.748C18.27 23.343 19.3892 22.7242 20.3675 21.8917C21.3467 21.0592 22.1625 20.0805 22.815 18.9555H18.8325C18.63 19.8105 18.3771 20.6371 18.0738 21.4354C17.7696 22.2346 17.415 23.0055 17.01 23.748ZM3.0375 16.2555H7.6275C7.56 15.8055 7.50915 15.3609 7.47495 14.9217C7.44165 14.4834 7.425 14.028 7.425 13.5555C7.425 13.083 7.44165 12.6276 7.47495 12.1893C7.50915 11.7501 7.56 11.3055 7.6275 10.8555H3.0375C2.925 11.3055 2.8404 11.7501 2.7837 12.1893C2.7279 12.6276 2.7 13.083 2.7 13.5555C2.7 14.028 2.7279 14.4834 2.7837 14.9217C2.8404 15.3609 2.925 15.8055 3.0375 16.2555ZM10.3275 16.2555H16.6725C16.74 15.8055 16.7909 15.3609 16.8251 14.9217C16.8584 14.4834 16.875 14.028 16.875 13.5555C16.875 13.083 16.8584 12.6276 16.8251 12.1893C16.7909 11.7501 16.74 11.3055 16.6725 10.8555H10.3275C10.26 11.3055 10.2096 11.7501 10.1763 12.1893C10.1421 12.6276 10.125 13.083 10.125 13.5555C10.125 14.028 10.1421 14.4834 10.1763 14.9217C10.2096 15.3609 10.26 15.8055 10.3275 16.2555ZM19.3725 16.2555H23.9625C24.075 15.8055 24.1596 15.3609 24.2163 14.9217C24.2721 14.4834 24.3 14.028 24.3 13.5555C24.3 13.083 24.2721 12.6276 24.2163 12.1893C24.1596 11.7501 24.075 11.3055 23.9625 10.8555H19.3725C19.44 11.3055 19.4904 11.7501 19.5237 12.1893C19.5579 12.6276 19.575 13.083 19.575 13.5555C19.575 14.028 19.5579 14.4834 19.5237 14.9217C19.4904 15.3609 19.44 15.8055 19.3725 16.2555ZM18.8325 8.15548H22.815C22.1625 7.03048 21.3467 6.05173 20.3675 5.21923C19.3892 4.38673 18.27 3.76798 17.01 3.36298C17.415 4.10548 17.7696 4.87588 18.0738 5.67418C18.3771 6.47338 18.63 7.30048 18.8325 8.15548ZM10.935 8.15548H16.065C15.795 7.16548 15.4462 6.23173 15.0188 5.35423C14.5913 4.47673 14.085 3.63298 13.5 2.82298C12.915 3.63298 12.4088 4.47673 11.9812 5.35423C11.5538 6.23173 11.205 7.16548 10.935 8.15548ZM4.185 8.15548H8.1675C8.37 7.30048 8.62335 6.47338 8.92755 5.67418C9.23085 4.87588 9.585 4.10548 9.99 3.36298C8.73 3.76798 7.6104 4.38673 6.6312 5.21923C5.6529 6.05173 4.8375 7.03048 4.185 8.15548Z" fill="#69BE28"/>
</svg>
