<svg width="22" height="22" viewBox="0 0 22 22" fill="none" xmlns="http://www.w3.org/2000/svg">
<path d="M0.5 11.3501C0.5 15.9227 3.38607 19.8209 7.43581 21.3236L8.36063 11.3501L7.43581 1.37659C3.38607 2.87928 0.5 6.77742 0.5 11.3501Z" fill="#6DA544"/>
<path d="M21.7697 11.3501C21.7697 5.47658 17.0083 0.715088 11.1347 0.715088C9.83386 0.715088 8.5877 0.949099 7.43555 1.37658V21.3236C8.5877 21.7511 9.83386 21.9851 11.1347 21.9851C17.0083 21.9851 21.7697 17.2236 21.7697 11.3501Z" fill="#D80027"/>
<path d="M7.43544 15.0492C9.4784 15.0492 11.1345 13.3931 11.1345 11.3501C11.1345 9.30715 9.4784 7.651 7.43544 7.651C5.39248 7.651 3.73633 9.30715 3.73633 11.3501C3.73633 13.3931 5.39248 15.0492 7.43544 15.0492Z" fill="#FFDA44"/>
<path d="M5.35547 9.50049V11.8124C5.35547 12.9616 6.28703 13.8932 7.43623 13.8932C8.58543 13.8932 9.51699 12.9616 9.51699 11.8124V9.50049H5.35547Z" fill="#D80027"/>
<path d="M7.43579 12.506C7.05334 12.506 6.74219 12.1949 6.74219 11.8124V10.8877H8.12935V11.8125C8.12935 12.1949 7.81819 12.506 7.43579 12.506Z" fill="#F0F0F0"/>
</svg>
