<svg width="82" height="82" viewBox="0 0 82 82" fill="none" xmlns="http://www.w3.org/2000/svg">
<path d="M79.3002 28.1547C68.7365 18.8009 55.109 13.6466 40.9994 13.668C26.3077 13.668 12.9144 19.1347 2.69852 28.1547C1.19519 29.4872 1.09269 31.7764 2.49352 33.1772L38.5735 69.3255C39.2227 69.9747 40.111 70.3164 40.9652 70.3164V47.8347C40.9652 44.0764 44.0402 41.0014 47.7985 41.0014H71.681L79.5052 33.1772C80.906 31.7764 80.8035 29.4872 79.3002 28.1547Z" fill="white"/>
<path d="M69.3576 50.2609C69.0415 49.9442 68.6661 49.6929 68.2528 49.5214C67.8394 49.35 67.3964 49.2617 66.9489 49.2617C66.5014 49.2617 66.0583 49.35 65.645 49.5214C65.2317 49.6929 64.8562 49.9442 64.5401 50.2609L59.791 54.9759L55.0418 50.2609C54.403 49.6221 53.5365 49.2632 52.633 49.2632C51.7296 49.2632 50.8631 49.6221 50.2243 50.2609C49.5855 50.8997 49.2266 51.7662 49.2266 52.6697C49.2266 53.5731 49.5855 54.4396 50.2243 55.0784L54.9735 59.8276L50.2243 64.5767C49.908 64.8931 49.6571 65.2686 49.4859 65.6819C49.3147 66.0952 49.2266 66.5381 49.2266 66.9855C49.2266 67.4328 49.3147 67.8758 49.4859 68.2891C49.6571 68.7024 49.908 69.0779 50.2243 69.3942C50.8631 70.0331 51.7296 70.392 52.633 70.392C53.0804 70.392 53.5234 70.3039 53.9367 70.1327C54.3499 69.9615 54.7255 69.7106 55.0418 69.3942L59.791 64.6792L64.5401 69.3942C64.8565 69.7106 65.232 69.9615 65.6453 70.1327C66.0586 70.3039 66.5015 70.392 66.9489 70.392C67.3962 70.392 67.8392 70.3039 68.2525 70.1327C68.6658 69.9615 69.0413 69.7106 69.3576 69.3942C69.674 69.0779 69.9249 68.7024 70.0961 68.2891C70.2673 67.8758 70.3554 67.4328 70.3554 66.9855C70.3554 66.5381 70.2673 66.0952 70.0961 65.6819C69.9249 65.2686 69.674 64.8931 69.3576 64.5767L64.6426 59.8276L69.3576 55.0784C69.6744 54.7623 69.9257 54.3869 70.0971 53.9735C70.2686 53.5602 70.3568 53.1171 70.3568 52.6697C70.3568 52.2222 70.2686 51.7791 70.0971 51.3658C69.9257 50.9524 69.6744 50.577 69.3576 50.2609Z" fill="white"/>
</svg>
