<svg width="55" height="55" viewBox="0 0 55 55" fill="none" xmlns="http://www.w3.org/2000/svg">
<g clip-path="url(#clip0_4311_20650)">
<path fill-rule="evenodd" clip-rule="evenodd" d="M27.5 12.0312C28.4117 12.0312 29.286 11.6691 29.9307 11.0244C30.5753 10.3798 30.9375 9.50543 30.9375 8.59375C30.9375 7.68207 30.5753 6.80773 29.9307 6.16307C29.286 5.51841 28.4117 5.15625 27.5 5.15625C26.5883 5.15625 25.714 5.51841 25.0693 6.16307C24.4247 6.80773 24.0625 7.68207 24.0625 8.59375C24.0625 9.50543 24.4247 10.3798 25.0693 11.0244C25.714 11.6691 26.5883 12.0312 27.5 12.0312ZM27.5 1.79142e-07C29.4811 -0.000404165 31.4015 0.68369 32.9362 1.93651C34.4709 3.18932 35.5257 4.9339 35.9219 6.875H44.6875C45.5992 6.875 46.4735 7.23716 47.1182 7.88182C47.7628 8.52648 48.125 9.40082 48.125 10.3125V51.5625C48.125 52.4742 47.7628 53.3485 47.1182 53.9932C46.4735 54.6378 45.5992 55 44.6875 55H10.3125C9.40082 55 8.52648 54.6378 7.88182 53.9932C7.23716 53.3485 6.875 52.4742 6.875 51.5625V10.3125C6.875 9.40082 7.23716 8.52648 7.88182 7.88182C8.52648 7.23716 9.40082 6.875 10.3125 6.875H19.0781C19.4743 4.9339 20.5291 3.18932 22.0638 1.93651C23.5985 0.68369 25.5189 -0.000404165 27.5 1.79142e-07ZM24.0625 17.1875H36.0938V12.0312H42.9688V49.8438H12.0312V12.0312H18.9062V17.1875H24.0625ZM36.1969 28.4625C36.4502 28.2265 36.6533 27.9418 36.7942 27.6256C36.9352 27.3094 37.0109 26.968 37.017 26.6218C37.0231 26.2756 36.9595 25.9318 36.8298 25.6108C36.7001 25.2897 36.5071 24.9981 36.2623 24.7533C36.0175 24.5085 35.7259 24.3155 35.4049 24.1858C35.0838 24.0562 34.74 23.9925 34.3938 23.9986C34.0477 24.0047 33.7063 24.0805 33.39 24.2214C33.0738 24.3623 32.7892 24.5655 32.5531 24.8187L25.7812 31.5906L24.1656 29.975C23.6769 29.5196 23.0305 29.2717 22.3626 29.2835C21.6947 29.2952 21.0574 29.5658 20.585 30.0382C20.1127 30.5105 19.8421 31.1478 19.8303 31.8157C19.8186 32.4836 20.0665 33.13 20.5219 33.6187L23.9594 37.0562C24.4428 37.539 25.098 37.8102 25.7812 37.8102C26.4645 37.8102 27.1197 37.539 27.6031 37.0562L36.1969 28.4625Z" fill="#6F6F6F"/>
</g>
<defs>
<clipPath id="clip0_4311_20650">
<rect width="55" height="55" fill="white"/>
</clipPath>
</defs>
</svg>
