<svg width="22" height="22" viewBox="0 0 22 22" fill="none" xmlns="http://www.w3.org/2000/svg">
<path d="M0.5 11C0.5 12.3009 0.734012 13.547 1.16149 14.6991L11.135 15.6239L21.1085 14.6991C21.536 13.547 21.77 12.3009 21.77 11C21.77 9.69912 21.536 8.453 21.1085 7.30089L11.135 6.3761L1.16149 7.30089C0.734012 8.453 0.5 9.69912 0.5 11H0.5Z" fill="#FFDA44"/>
<path d="M21.1091 7.30088C19.6065 3.2511 15.7083 0.36499 11.1356 0.36499C6.56294 0.36499 2.66476 3.2511 1.16211 7.30088H21.1091Z" fill="#D80027"/>
<path d="M1.16211 14.6991C2.66476 18.7489 6.56294 21.635 11.1356 21.635C15.7083 21.635 19.6065 18.7489 21.1091 14.6991H1.16211Z" fill="#D80027"/>
</svg>
