<svg width="16" height="17" viewBox="0 0 16 17" fill="none" xmlns="http://www.w3.org/2000/svg">
<path d="M6.3833 13.2865C7.76123 13.2865 9.04785 12.8383 10.0938 12.0912L14.0283 16.0258C14.2109 16.2084 14.4517 16.2997 14.7007 16.2997C15.2402 16.2997 15.6304 15.8846 15.6304 15.3534C15.6304 15.1044 15.5474 14.8719 15.3647 14.6893L11.4551 10.7714C12.2769 9.69226 12.7666 8.35583 12.7666 6.9032C12.7666 3.39197 9.89453 0.519897 6.3833 0.519897C2.86377 0.519897 0 3.39197 0 6.9032C0 10.4144 2.86377 13.2865 6.3833 13.2865ZM6.3833 11.9086C3.63574 11.9086 1.37793 9.64246 1.37793 6.9032C1.37793 4.16394 3.63574 1.89783 6.3833 1.89783C9.12256 1.89783 11.3887 4.16394 11.3887 6.9032C11.3887 9.64246 9.12256 11.9086 6.3833 11.9086Z" fill="#8E8E93"/>
</svg>
