<svg width="22" height="22" viewBox="0 0 22 22" fill="none" xmlns="http://www.w3.org/2000/svg">
<path d="M11.135 21.655C17.0085 21.655 21.77 16.8936 21.77 11.02C21.77 5.14646 17.0085 0.38501 11.135 0.38501C5.26145 0.38501 0.5 5.14646 0.5 11.02C0.5 16.8936 5.26145 21.655 11.135 21.655Z" fill="#F0F0F0"/>
<path d="M21.1085 7.32092H1.16149C0.73397 8.47303 0.5 9.71916 0.5 11.02C0.5 12.3209 0.73397 13.567 1.16149 14.7191H21.1086C21.536 13.567 21.77 12.3209 21.77 11.02C21.77 9.71916 21.536 8.47303 21.1085 7.32092Z" fill="#0052B4"/>
<path d="M11.1341 0.38501C7.91078 0.38501 5.02258 1.81924 3.07227 4.08412H19.196C17.2457 1.81924 14.3575 0.38501 11.1341 0.38501Z" fill="#D80027"/>
<path d="M19.196 17.9559H3.07227C5.02258 20.2208 7.91078 21.655 11.1341 21.655C14.3575 21.655 17.2457 20.2208 19.196 17.9559Z" fill="#D80027"/>
</svg>
