<svg width="22" height="22" viewBox="0 0 22 22" fill="none" xmlns="http://www.w3.org/2000/svg">
<path d="M11.135 21.625C17.0085 21.625 21.77 16.8635 21.77 10.99C21.77 5.11643 17.0085 0.35498 11.135 0.35498C5.26145 0.35498 0.5 5.11643 0.5 10.99C0.5 16.8635 5.26145 21.625 11.135 21.625Z" fill="#F0F0F0"/>
<path d="M2.69927 4.5152C1.86389 5.60209 1.23397 6.85481 0.867188 8.21572H6.3998L2.69927 4.5152Z" fill="#0052B4"/>
<path d="M21.4036 8.21574C21.0368 6.85488 20.4069 5.60215 19.5715 4.51526L15.8711 8.21574H21.4036Z" fill="#0052B4"/>
<path d="M0.867188 13.7644C1.23401 15.1253 1.86393 16.378 2.69927 17.4648L6.39967 13.7644H0.867188Z" fill="#0052B4"/>
<path d="M17.6106 2.5535C16.5237 1.71812 15.2711 1.0882 13.9102 0.721375V6.25394L17.6106 2.5535Z" fill="#0052B4"/>
<path d="M4.66016 19.4265C5.74704 20.2619 6.99977 20.8918 8.36064 21.2587V15.7261L4.66016 19.4265Z" fill="#0052B4"/>
<path d="M8.3606 0.721375C6.99973 1.0882 5.747 1.71811 4.66016 2.55346L8.3606 6.2539V0.721375Z" fill="#0052B4"/>
<path d="M13.9102 21.2587C15.271 20.8918 16.5237 20.2619 17.6106 19.4266L13.9102 15.7261V21.2587Z" fill="#0052B4"/>
<path d="M15.8711 13.7644L19.5715 17.4649C20.4069 16.378 21.0368 15.1253 21.4036 13.7644H15.8711Z" fill="#0052B4"/>
<path d="M21.68 9.60282H12.5222H12.5222V0.445004C12.0681 0.385888 11.6051 0.35498 11.135 0.35498C10.6648 0.35498 10.2019 0.385888 9.74784 0.445004V9.60274V9.60278H0.590024C0.530908 10.0569 0.5 10.5198 0.5 10.99C0.5 11.4602 0.530908 11.9231 0.590024 12.3771H9.74776H9.7478V21.535C10.2019 21.5941 10.6648 21.625 11.135 21.625C11.6051 21.625 12.0681 21.5941 12.5222 21.535V12.3772V12.3772H21.68C21.7391 11.9231 21.77 11.4602 21.77 10.99C21.77 10.5198 21.7391 10.0569 21.68 9.60282Z" fill="#D80027"/>
<path d="M13.9102 13.7644L18.6559 18.5101C18.8741 18.2919 19.0823 18.0638 19.281 17.8273L15.218 13.7643H13.9102V13.7644Z" fill="#D80027"/>
<path d="M8.36098 13.7644H8.3609L3.61523 18.5101C3.83342 18.7283 4.06153 18.9365 4.29799 19.1352L8.36098 15.0721V13.7644Z" fill="#D80027"/>
<path d="M8.36108 8.21568V8.21559L3.61537 3.46985C3.39711 3.68803 3.18889 3.91614 2.99023 4.15261L7.05326 8.21563H8.36108V8.21568Z" fill="#D80027"/>
<path d="M13.9102 8.21573L18.6559 3.46995C18.4377 3.25168 18.2096 3.04347 17.9731 2.84485L13.9102 6.90788V8.21573Z" fill="#D80027"/>
</svg>
