<svg width="25" height="21" viewBox="0 0 25 21" fill="none" xmlns="http://www.w3.org/2000/svg">
<path d="M16.25 12.5742V8.82422H20V6.32422L25 10.6992L20 15.0742V12.5742H16.25ZM15 4.69922V6.32422H0V4.69922L7.5 0.0742188L15 4.69922ZM6.25 7.57422H8.75V13.8242H6.25V7.57422ZM1.25 7.57422H3.75V13.8242H1.25V7.57422ZM13.75 7.57422V10.6992L11.25 12.9492V7.57422H13.75ZM8.875 15.0742L8.125 15.6992L10.25 17.5742H0V15.0742H8.875ZM18.75 13.8242V17.5742H15V20.0742L10 15.6992L15 11.3242V13.8242H18.75Z" fill="white"/>
</svg>
