<svg width="24" height="24" viewBox="0 0 24 24" fill="none" xmlns="http://www.w3.org/2000/svg">
<mask id="path-1-inside-1_3533_271" fill="white">
<path fill-rule="evenodd" clip-rule="evenodd" d="M17.7273 12.4239C17.1341 12.7227 16.464 12.8909 15.7546 12.8909C13.3295 12.8909 11.3637 10.9251 11.3637 8.50004C11.3637 7.68709 11.5846 6.92575 11.9697 6.27277H6.01818C5.45586 6.27277 5 6.72862 5 7.29095V17.9819C5 18.5442 5.45586 19 6.01818 19H16.7091C17.2714 19 17.7273 18.5442 17.7273 17.9819V12.4239Z"/>
</mask>
<path d="M17.7273 12.4239H18.7273V10.8005L17.2774 11.5308L17.7273 12.4239ZM11.9697 6.27277L12.831 6.78074L13.7203 5.27277H11.9697V6.27277ZM17.2774 11.5308C16.8206 11.7609 16.3042 11.8909 15.7546 11.8909V13.8909C16.6238 13.8909 17.4477 13.6845 18.1771 13.317L17.2774 11.5308ZM15.7546 11.8909C13.8818 11.8909 12.3637 10.3728 12.3637 8.50004H10.3637C10.3637 11.4774 12.7772 13.8909 15.7546 13.8909V11.8909ZM12.3637 8.50004C12.3637 7.8706 12.5342 7.28405 12.831 6.78074L11.1083 5.76479C10.6349 6.56745 10.3637 7.50359 10.3637 8.50004H12.3637ZM6.01818 7.27277H11.9697V5.27277H6.01818V7.27277ZM6 7.29095C6 7.28659 6.00069 7.28496 6.00102 7.28418C6.00163 7.28273 6.00295 7.28046 6.00533 7.27809C6.0077 7.27572 6.00996 7.2744 6.01141 7.27378C6.0122 7.27345 6.01383 7.27277 6.01818 7.27277V5.27277C4.90357 5.27277 4 6.17634 4 7.29095H6ZM6 17.9819V7.29095H4V17.9819H6ZM6.01818 18C6.01383 18 6.0122 17.9994 6.01141 17.999C6.00996 17.9984 6.0077 17.9971 6.00532 17.9947C6.00295 17.9923 6.00163 17.9901 6.00102 17.9886C6.00069 17.9878 6 17.9862 6 17.9819H4C4 19.0965 4.90357 20 6.01818 20V18ZM16.7091 18H6.01818V20H16.7091V18ZM16.7273 17.9819C16.7273 17.9862 16.7266 17.9878 16.7263 17.9886C16.7256 17.9901 16.7243 17.9923 16.7219 17.9947C16.7196 17.9971 16.7173 17.9984 16.7159 17.999C16.7151 17.9994 16.7134 18 16.7091 18V20C17.8237 20 18.7273 19.0965 18.7273 17.9819H16.7273ZM16.7273 12.4239V17.9819H18.7273V12.4239H16.7273Z" fill="black" mask="url(#path-1-inside-1_3533_271)"/>
<circle cx="15.2266" cy="8.5" r="3" stroke="black"/>
</svg>
