<svg width="60" height="54" viewBox="0 0 60 54" fill="none" xmlns="http://www.w3.org/2000/svg">
<path d="M6.66536 53.25C5.0612 53.25 3.68842 52.6793 2.54703 51.5379C1.4037 50.3946 0.832031 49.0208 0.832031 47.4167V6.58333C0.832031 4.97917 1.4037 3.60542 2.54703 2.46208C3.68842 1.32069 5.0612 0.75 6.66536 0.75H53.332C54.9362 0.75 56.3099 1.32069 57.4533 2.46208C58.5947 3.60542 59.1654 4.97917 59.1654 6.58333V47.4167C59.1654 49.0208 58.5947 50.3946 57.4533 51.5379C56.3099 52.6793 54.9362 53.25 53.332 53.25H6.66536ZM9.58203 41.5833H24.1654V35.75H9.58203V41.5833ZM37.4362 35.75L51.8737 21.3125L47.7175 17.1562L37.4362 27.5104L33.2799 23.3542L29.1966 27.5104L37.4362 35.75ZM9.58203 29.9167H24.1654V24.0833H9.58203V29.9167ZM9.58203 18.25H24.1654V12.4167H9.58203V18.25Z" fill="white"/>
</svg>
