<svg width="55" height="55" viewBox="0 0 55 55" fill="none" xmlns="http://www.w3.org/2000/svg">
<path d="M18.332 27.4997H29.8477C30.497 27.4997 31.0317 27.2797 31.4518 26.8397C31.872 26.4012 32.082 25.8573 32.082 25.208C32.082 24.5587 31.8628 24.014 31.4243 23.574C30.9843 23.1356 30.4397 22.9163 29.7904 22.9163H18.2747C17.6254 22.9163 17.0907 23.1356 16.6706 23.574C16.2504 24.014 16.0404 24.5587 16.0404 25.208C16.0404 25.8573 16.2596 26.4012 16.6981 26.8397C17.1381 27.2797 17.6827 27.4997 18.332 27.4997ZM18.332 20.6247H29.8477C30.497 20.6247 31.0317 20.4047 31.4518 19.9647C31.872 19.5262 32.082 18.9823 32.082 18.333C32.082 17.6837 31.8628 17.139 31.4243 16.699C30.9843 16.2606 30.4397 16.0413 29.7904 16.0413H18.2747C17.6254 16.0413 17.0907 16.2606 16.6706 16.699C16.2504 17.139 16.0404 17.6837 16.0404 18.333C16.0404 18.9823 16.2596 19.5262 16.6981 19.9647C17.1381 20.4047 17.6827 20.6247 18.332 20.6247ZM18.332 34.3747H20.681C21.3303 34.3747 21.865 34.1547 22.2852 33.7147C22.7053 33.2762 22.9154 32.7323 22.9154 32.083C22.9154 31.4337 22.6961 30.889 22.2577 30.449C21.8177 30.0106 21.273 29.7913 20.6237 29.7913H18.2747C17.6254 29.7913 17.0907 30.0106 16.6706 30.449C16.2504 30.889 16.0404 31.4337 16.0404 32.083C16.0404 32.7323 16.2596 33.2762 16.6981 33.7147C17.1381 34.1547 17.6827 34.3747 18.332 34.3747ZM27.4987 50.4163C24.3286 50.4163 21.3494 49.8144 18.5612 48.6105C15.773 47.4081 13.3477 45.7757 11.2852 43.7132C9.22266 41.6507 7.59023 39.2254 6.38786 36.4372C5.18398 33.649 4.58203 30.6698 4.58203 27.4997C4.58203 24.3295 5.18398 21.3504 6.38786 18.5622C7.59023 15.774 9.22266 13.3486 11.2852 11.2861C13.3477 9.22363 15.773 7.59044 18.5612 6.38655C21.3494 5.18419 24.3286 4.58301 27.4987 4.58301C30.6688 4.58301 33.648 5.18419 36.4362 6.38655C39.2244 7.59044 41.6497 9.22363 43.7122 11.2861C45.7747 13.3486 47.4072 15.774 48.6095 18.5622C49.8134 21.3504 50.4154 24.3295 50.4154 27.4997C50.4154 30.6698 49.8134 33.649 48.6095 36.4372C47.4072 39.2254 45.7747 41.6507 43.7122 43.7132C41.6497 45.7757 39.2244 47.4081 36.4362 48.6105C33.648 49.8144 30.6688 50.4163 27.4987 50.4163ZM32.1966 35.6351L30.5924 34.0309C30.1341 33.5726 29.5902 33.3335 28.9608 33.3136C28.3298 33.2953 27.7852 33.5153 27.3268 33.9736C26.8685 34.432 26.6393 34.9759 26.6393 35.6053C26.6393 36.2363 26.8685 36.7809 27.3268 37.2393L30.5924 40.5049C31.0508 40.9632 31.5855 41.1924 32.1966 41.1924C32.8077 41.1924 33.3424 40.9632 33.8008 40.5049L41.9935 32.3122C42.4518 31.8538 42.6718 31.3191 42.6535 30.708C42.6336 30.0969 42.3945 29.5622 41.9362 29.1038C41.4779 28.6837 40.9431 28.4637 40.332 28.4438C39.7209 28.4255 39.1862 28.6455 38.7279 29.1038L32.1966 35.6351Z" fill="#F8F8F8"/>
</svg>
