<svg width="25" height="25" viewBox="0 0 25 25" fill="none" xmlns="http://www.w3.org/2000/svg">
<circle cx="12.5" cy="12.5" r="12.5" fill="#D9D9D9"/>
<g clip-path="url(#clip0_1104_11312)">
<path d="M12.4991 5.05957C16.6084 5.05957 19.9395 8.39067 19.9395 12.5C19.9395 16.6094 16.6084 19.9405 12.4991 19.9405C8.3897 19.9405 5.05859 16.6094 5.05859 12.5C5.05859 8.39067 8.3897 5.05957 12.4991 5.05957ZM10.9209 9.86909C10.7874 9.73423 10.6073 9.65553 10.4176 9.64909C10.2278 9.64266 10.0428 9.70897 9.90042 9.83447C9.758 9.95997 9.66894 10.1352 9.65145 10.3242C9.63396 10.5132 9.68938 10.7017 9.80636 10.8512L9.86886 10.9219L11.4462 12.4993L9.86886 14.0782C9.734 14.2118 9.6553 14.3918 9.64886 14.5816C9.64242 14.7713 9.70874 14.9563 9.83424 15.0987C9.95974 15.2411 10.1349 15.3302 10.3239 15.3477C10.513 15.3652 10.7015 15.3097 10.851 15.1928L10.9209 15.131L12.4991 13.5521L14.0772 15.131C14.2108 15.2659 14.3909 15.3446 14.5806 15.351C14.7703 15.3574 14.9553 15.2911 15.0977 15.1656C15.2401 15.0401 15.3292 14.8649 15.3467 14.6759C15.3642 14.4869 15.3088 14.2984 15.1918 14.1489L15.13 14.0782L13.5512 12.5L15.13 10.9219C15.2649 10.7883 15.3436 10.6083 15.35 10.4185C15.3565 10.2288 15.2901 10.0438 15.1646 9.9014C15.0392 9.75898 14.864 9.66991 14.6749 9.65243C14.4859 9.63494 14.2974 9.69036 14.1479 9.80734L14.0772 9.86909L12.4991 11.448L10.9209 9.86909Z" fill="#9D3E4F"/>
</g>
<defs>
<clipPath id="clip0_1104_11312">
<rect width="17.8571" height="17.8571" fill="white" transform="translate(3.57031 3.57129)"/>
</clipPath>
</defs>
</svg>
